<svg width="210" height="290" viewBox="0 0 210 290" fill="none" xmlns="http://www.w3.org/2000/svg">
<g clip-path="url(#clip0_200_313)">
<g filter="url(#filter0_d_200_313)">
<path d="M-308 -8C-308 -31.7482 -288.748 -51 -265 -51H149C172.748 -51 192 -31.7482 192 -8V138C192 161.748 172.748 181 149 181H-265C-288.748 181 -308 161.748 -308 138V-8Z" fill="#EEF8F7"/>
</g>
<rect x="-22" y="27" width="200" height="45" rx="18" fill="#C4DFDE"/>
<rect x="-18" y="33" width="190" height="33" rx="12" fill="#EEF8F7"/>
<rect x="-22" y="-32" width="200" height="45" rx="18" fill="#C4DFDE"/>
<rect x="42" y="-25.4147" width="130" height="31.8293" rx="12" fill="#EEF8F7"/>
<g filter="url(#filter1_d_200_313)">
<path d="M147.657 86.2428H-74.6567C-91.1189 86.2428 -104.464 99.5527 -104.464 115.971V137.029C-104.464 153.447 -91.1189 166.757 -74.6567 166.757H147.657C164.119 166.757 177.464 153.447 177.464 137.029V115.971C177.464 99.5527 164.119 86.2428 147.657 86.2428Z" fill="url(#paint0_linear_200_313)"/>
</g>
<g filter="url(#filter2_i_200_313)">
<path d="M127.785 93.6749H9.79745C-2.54918 93.6749 -12.5581 103.657 -12.5581 115.971V135.79C-12.5581 148.104 -2.54918 158.086 9.79745 158.086H127.785C140.132 158.086 150.141 148.104 150.141 135.79V115.971C150.141 103.657 140.132 93.6749 127.785 93.6749Z" fill="url(#paint1_radial_200_313)" fill-opacity="0.08"/>
</g>
<g filter="url(#filter3_i_200_313)">
<path d="M119.091 93.6749H33.3951C21.0485 93.6749 11.0396 103.657 11.0396 115.971V135.79C11.0396 148.104 21.0485 158.086 33.3951 158.086H119.091C131.438 158.086 141.447 148.104 141.447 135.79V115.971C141.447 103.657 131.438 93.6749 119.091 93.6749Z" fill="url(#paint2_radial_200_313)" fill-opacity="0.08"/>
</g>
<g filter="url(#filter4_i_200_313)">
<path d="M131.511 93.6749H56.9925C44.6459 93.6749 34.637 103.657 34.637 115.971V135.79C34.637 148.104 44.6459 158.086 56.9925 158.086H131.511C143.858 158.086 153.867 148.104 153.867 135.79V115.971C153.867 103.657 143.858 93.6749 131.511 93.6749Z" fill="url(#paint3_radial_200_313)" fill-opacity="0.08"/>
</g>
<g filter="url(#filter5_i_200_313)">
<path d="M124.059 93.6749H80.5902C68.2435 93.6749 58.2346 103.657 58.2346 115.971V135.79C58.2346 148.104 68.2435 158.086 80.5902 158.086H124.059C136.406 158.086 146.415 148.104 146.415 135.79V115.971C146.415 103.657 136.406 93.6749 124.059 93.6749Z" fill="url(#paint4_radial_200_313)" fill-opacity="0.08"/>
</g>
<g filter="url(#filter6_i_200_313)">
<path d="M147.657 93.6749H104.188C91.841 93.6749 81.832 103.657 81.832 115.971V135.79C81.832 148.104 91.841 158.086 104.188 158.086H147.657C160.003 158.086 170.012 148.104 170.012 135.79V115.971C170.012 103.657 160.003 93.6749 147.657 93.6749Z" fill="#D4D4D4"/>
</g>
<g opacity="0.5">
<g filter="url(#filter7_i_200_313)">
<path d="M114.124 113.494V140.161" stroke="black" stroke-opacity="0.12" stroke-width="3.5" stroke-linecap="round"/>
</g>
<g filter="url(#filter8_i_200_313)">
<path d="M121.989 113.494V140.161" stroke="black" stroke-opacity="0.12" stroke-width="3.5" stroke-linecap="round"/>
</g>
<g filter="url(#filter9_i_200_313)">
<path d="M129.856 113.494V140.161" stroke="black" stroke-opacity="0.12" stroke-width="3.5" stroke-linecap="round"/>
</g>
<g filter="url(#filter10_i_200_313)">
<path d="M137.721 113.494V140.161" stroke="black" stroke-opacity="0.12" stroke-width="3.5" stroke-linecap="round"/>
</g>
</g>
<path d="M151.734 211.056C151.996 210.843 152.069 210.49 151.933 210.201L151.83 210.037L151.734 209.944L123.938 187.168C123.626 186.912 123.161 186.953 122.901 187.261C122.828 187.347 122.776 187.449 122.751 187.558L122.73 187.724L122.73 198.193C122.73 199.292 121.899 200.201 120.822 200.345L120.522 200.364L-90.2619 200.364C-90.6112 200.364 -90.9043 200.603 -90.9792 200.922L-91 201.088L-91 219.912C-91 220.254 -90.7567 220.541 -90.4324 220.616L-90.2619 220.636L120.522 220.636C121.639 220.636 122.564 221.453 122.709 222.513L122.73 222.808L122.73 233.276C122.73 233.676 123.061 234 123.466 234C123.581 234 123.695 233.974 123.795 233.924L123.938 233.832L151.734 211.056Z" fill="url(#paint5_linear_200_313)"/>
</g>
<defs>
<filter id="filter0_d_200_313" x="-333" y="-72" width="550" height="282" filterUnits="userSpaceOnUse" color-interpolation-filters="sRGB">
<feFlood flood-opacity="0" result="BackgroundImageFix"/>
<feColorMatrix in="SourceAlpha" type="matrix" values="0 0 0 0 0 0 0 0 0 0 0 0 0 0 0 0 0 0 127 0" result="hardAlpha"/>
<feOffset dy="4"/>
<feGaussianBlur stdDeviation="12.5"/>
<feComposite in2="hardAlpha" operator="out"/>
<feColorMatrix type="matrix" values="0 0 0 0 0.0223706 0 0 0 0 0.171484 0 0 0 0 0.164029 0 0 0 0.25 0"/>
<feBlend mode="normal" in2="BackgroundImageFix" result="effect1_dropShadow_200_313"/>
<feBlend mode="normal" in="SourceGraphic" in2="effect1_dropShadow_200_313" result="shape"/>
</filter>
<filter id="filter1_d_200_313" x="-176.564" y="14.1428" width="426.128" height="224.714" filterUnits="userSpaceOnUse" color-interpolation-filters="sRGB">
<feFlood flood-opacity="0" result="BackgroundImageFix"/>
<feColorMatrix in="SourceAlpha" type="matrix" values="0 0 0 0 0 0 0 0 0 0 0 0 0 0 0 0 0 0 127 0" result="hardAlpha"/>
<feOffset/>
<feGaussianBlur stdDeviation="36.05"/>
<feComposite in2="hardAlpha" operator="out"/>
<feColorMatrix type="matrix" values="0 0 0 0 0.105882 0 0 0 0 0.764706 0 0 0 0 0.709804 0 0 0 0.35 0"/>
<feBlend mode="normal" in2="BackgroundImageFix" result="effect1_dropShadow_200_313"/>
<feBlend mode="normal" in="SourceGraphic" in2="effect1_dropShadow_200_313" result="shape"/>
</filter>
<filter id="filter2_i_200_313" x="-12.5581" y="93.6749" width="162.699" height="64.4115" filterUnits="userSpaceOnUse" color-interpolation-filters="sRGB">
<feFlood flood-opacity="0" result="BackgroundImageFix"/>
<feBlend mode="normal" in="SourceGraphic" in2="BackgroundImageFix" result="shape"/>
<feColorMatrix in="SourceAlpha" type="matrix" values="0 0 0 0 0 0 0 0 0 0 0 0 0 0 0 0 0 0 127 0" result="hardAlpha"/>
<feOffset/>
<feGaussianBlur stdDeviation="8.7"/>
<feComposite in2="hardAlpha" operator="arithmetic" k2="-1" k3="1"/>
<feColorMatrix type="matrix" values="0 0 0 0 0.831373 0 0 0 0 0.831373 0 0 0 0 0.831373 0 0 0 0.09 0"/>
<feBlend mode="normal" in2="shape" result="effect1_innerShadow_200_313"/>
</filter>
<filter id="filter3_i_200_313" x="11.0396" y="93.6749" width="130.407" height="64.4115" filterUnits="userSpaceOnUse" color-interpolation-filters="sRGB">
<feFlood flood-opacity="0" result="BackgroundImageFix"/>
<feBlend mode="normal" in="SourceGraphic" in2="BackgroundImageFix" result="shape"/>
<feColorMatrix in="SourceAlpha" type="matrix" values="0 0 0 0 0 0 0 0 0 0 0 0 0 0 0 0 0 0 127 0" result="hardAlpha"/>
<feOffset/>
<feGaussianBlur stdDeviation="8.7"/>
<feComposite in2="hardAlpha" operator="arithmetic" k2="-1" k3="1"/>
<feColorMatrix type="matrix" values="0 0 0 0 0.831373 0 0 0 0 0.831373 0 0 0 0 0.831373 0 0 0 0.09 0"/>
<feBlend mode="normal" in2="shape" result="effect1_innerShadow_200_313"/>
</filter>
<filter id="filter4_i_200_313" x="34.637" y="93.6749" width="119.23" height="64.4115" filterUnits="userSpaceOnUse" color-interpolation-filters="sRGB">
<feFlood flood-opacity="0" result="BackgroundImageFix"/>
<feBlend mode="normal" in="SourceGraphic" in2="BackgroundImageFix" result="shape"/>
<feColorMatrix in="SourceAlpha" type="matrix" values="0 0 0 0 0 0 0 0 0 0 0 0 0 0 0 0 0 0 127 0" result="hardAlpha"/>
<feOffset/>
<feGaussianBlur stdDeviation="8.7"/>
<feComposite in2="hardAlpha" operator="arithmetic" k2="-1" k3="1"/>
<feColorMatrix type="matrix" values="0 0 0 0 0.831373 0 0 0 0 0.831373 0 0 0 0 0.831373 0 0 0 0.09 0"/>
<feBlend mode="normal" in2="shape" result="effect1_innerShadow_200_313"/>
</filter>
<filter id="filter5_i_200_313" x="58.2346" y="93.6749" width="88.1802" height="64.4115" filterUnits="userSpaceOnUse" color-interpolation-filters="sRGB">
<feFlood flood-opacity="0" result="BackgroundImageFix"/>
<feBlend mode="normal" in="SourceGraphic" in2="BackgroundImageFix" result="shape"/>
<feColorMatrix in="SourceAlpha" type="matrix" values="0 0 0 0 0 0 0 0 0 0 0 0 0 0 0 0 0 0 127 0" result="hardAlpha"/>
<feOffset/>
<feGaussianBlur stdDeviation="8.7"/>
<feComposite in2="hardAlpha" operator="arithmetic" k2="-1" k3="1"/>
<feColorMatrix type="matrix" values="0 0 0 0 0.831373 0 0 0 0 0.831373 0 0 0 0 0.831373 0 0 0 0.09 0"/>
<feBlend mode="normal" in2="shape" result="effect1_innerShadow_200_313"/>
</filter>
<filter id="filter6_i_200_313" x="81.832" y="93.6749" width="88.1802" height="64.4115" filterUnits="userSpaceOnUse" color-interpolation-filters="sRGB">
<feFlood flood-opacity="0" result="BackgroundImageFix"/>
<feBlend mode="normal" in="SourceGraphic" in2="BackgroundImageFix" result="shape"/>
<feColorMatrix in="SourceAlpha" type="matrix" values="0 0 0 0 0 0 0 0 0 0 0 0 0 0 0 0 0 0 127 0" result="hardAlpha"/>
<feOffset/>
<feGaussianBlur stdDeviation="6"/>
<feComposite in2="hardAlpha" operator="arithmetic" k2="-1" k3="1"/>
<feColorMatrix type="matrix" values="0 0 0 0 0.0745098 0 0 0 0 0.627451 0 0 0 0 0.54902 0 0 0 0.33 0"/>
<feBlend mode="normal" in2="shape" result="effect1_innerShadow_200_313"/>
</filter>
<filter id="filter7_i_200_313" x="112.374" y="111.744" width="3.5" height="30.1676" filterUnits="userSpaceOnUse" color-interpolation-filters="sRGB">
<feFlood flood-opacity="0" result="BackgroundImageFix"/>
<feBlend mode="normal" in="SourceGraphic" in2="BackgroundImageFix" result="shape"/>
<feColorMatrix in="SourceAlpha" type="matrix" values="0 0 0 0 0 0 0 0 0 0 0 0 0 0 0 0 0 0 127 0" result="hardAlpha"/>
<feOffset/>
<feGaussianBlur stdDeviation="1.2"/>
<feComposite in2="hardAlpha" operator="arithmetic" k2="-1" k3="1"/>
<feColorMatrix type="matrix" values="0 0 0 0 0 0 0 0 0 0 0 0 0 0 0 0 0 0 0.14 0"/>
<feBlend mode="normal" in2="shape" result="effect1_innerShadow_200_313"/>
</filter>
<filter id="filter8_i_200_313" x="120.239" y="111.744" width="3.5" height="30.1676" filterUnits="userSpaceOnUse" color-interpolation-filters="sRGB">
<feFlood flood-opacity="0" result="BackgroundImageFix"/>
<feBlend mode="normal" in="SourceGraphic" in2="BackgroundImageFix" result="shape"/>
<feColorMatrix in="SourceAlpha" type="matrix" values="0 0 0 0 0 0 0 0 0 0 0 0 0 0 0 0 0 0 127 0" result="hardAlpha"/>
<feOffset/>
<feGaussianBlur stdDeviation="1.2"/>
<feComposite in2="hardAlpha" operator="arithmetic" k2="-1" k3="1"/>
<feColorMatrix type="matrix" values="0 0 0 0 0 0 0 0 0 0 0 0 0 0 0 0 0 0 0.14 0"/>
<feBlend mode="normal" in2="shape" result="effect1_innerShadow_200_313"/>
</filter>
<filter id="filter9_i_200_313" x="128.106" y="111.744" width="3.5" height="30.1676" filterUnits="userSpaceOnUse" color-interpolation-filters="sRGB">
<feFlood flood-opacity="0" result="BackgroundImageFix"/>
<feBlend mode="normal" in="SourceGraphic" in2="BackgroundImageFix" result="shape"/>
<feColorMatrix in="SourceAlpha" type="matrix" values="0 0 0 0 0 0 0 0 0 0 0 0 0 0 0 0 0 0 127 0" result="hardAlpha"/>
<feOffset/>
<feGaussianBlur stdDeviation="1.2"/>
<feComposite in2="hardAlpha" operator="arithmetic" k2="-1" k3="1"/>
<feColorMatrix type="matrix" values="0 0 0 0 0 0 0 0 0 0 0 0 0 0 0 0 0 0 0.14 0"/>
<feBlend mode="normal" in2="shape" result="effect1_innerShadow_200_313"/>
</filter>
<filter id="filter10_i_200_313" x="135.971" y="111.744" width="3.5" height="30.1676" filterUnits="userSpaceOnUse" color-interpolation-filters="sRGB">
<feFlood flood-opacity="0" result="BackgroundImageFix"/>
<feBlend mode="normal" in="SourceGraphic" in2="BackgroundImageFix" result="shape"/>
<feColorMatrix in="SourceAlpha" type="matrix" values="0 0 0 0 0 0 0 0 0 0 0 0 0 0 0 0 0 0 127 0" result="hardAlpha"/>
<feOffset/>
<feGaussianBlur stdDeviation="1.2"/>
<feComposite in2="hardAlpha" operator="arithmetic" k2="-1" k3="1"/>
<feColorMatrix type="matrix" values="0 0 0 0 0 0 0 0 0 0 0 0 0 0 0 0 0 0 0.14 0"/>
<feBlend mode="normal" in2="shape" result="effect1_innerShadow_200_313"/>
</filter>
<linearGradient id="paint0_linear_200_313" x1="-104.464" y1="126.5" x2="177.464" y2="126.5" gradientUnits="userSpaceOnUse">
<stop stop-color="#21C2C2"/>
<stop offset="1" stop-color="#14C2A7"/>
</linearGradient>
<radialGradient id="paint1_radial_200_313" cx="0" cy="0" r="1" gradientUnits="userSpaceOnUse" gradientTransform="translate(68.7913 125.881) rotate(90) scale(32.2058 81.3494)">
<stop stop-color="#D4D4D4" stop-opacity="0.55"/>
<stop offset="1" stop-color="#D4D4D4"/>
</radialGradient>
<radialGradient id="paint2_radial_200_313" cx="0" cy="0" r="1" gradientUnits="userSpaceOnUse" gradientTransform="translate(76.2433 125.881) rotate(90) scale(32.2058 65.2037)">
<stop stop-color="#D4D4D4" stop-opacity="0.55"/>
<stop offset="1" stop-color="#D4D4D4"/>
</radialGradient>
<radialGradient id="paint3_radial_200_313" cx="0" cy="0" r="1" gradientUnits="userSpaceOnUse" gradientTransform="translate(94.2518 125.881) rotate(90) scale(32.2058 59.6148)">
<stop stop-color="#D4D4D4" stop-opacity="0.55"/>
<stop offset="1" stop-color="#D4D4D4"/>
</radialGradient>
<radialGradient id="paint4_radial_200_313" cx="0" cy="0" r="1" gradientUnits="userSpaceOnUse" gradientTransform="translate(102.325 125.881) rotate(90) scale(32.2058 44.0901)">
<stop stop-color="#D4D4D4" stop-opacity="0.55"/>
<stop offset="1" stop-color="#D4D4D4"/>
</radialGradient>
<linearGradient id="paint5_linear_200_313" x1="-15" y1="210.5" x2="152" y2="210.5" gradientUnits="userSpaceOnUse">
<stop stop-color="#22C3C0" stop-opacity="0"/>
<stop offset="1" stop-color="#15C3A8"/>
</linearGradient>
<clipPath id="clip0_200_313">
<rect width="210" height="290" fill="white"/>
</clipPath>
</defs>
</svg>
