<svg width="210" height="290" viewBox="0 0 210 290" fill="none" xmlns="http://www.w3.org/2000/svg">
<g clip-path="url(#clip0_200_313)">
<g filter="url(#filter0_d_200_313)">
<path d="M-308 -14C-308 -37.7482 -288.748 -57 -265 -57H149C172.748 -57 192 -37.7482 192 -14V132C192 155.748 172.748 175 149 175H-265C-288.748 175 -308 155.748 -308 132V-14Z" fill="#EEF8F7"/>
</g>
<rect x="-22" y="21" width="200" height="45" rx="18" fill="#C4DFDE"/>
<rect x="-18" y="27" width="190" height="33" rx="12" fill="#EEF8F7"/>
<rect x="-22" y="-38" width="200" height="45" rx="18" fill="#C4DFDE"/>
<rect x="42" y="-31.4147" width="130" height="31.8293" rx="12" fill="#EEF8F7"/>
<g filter="url(#filter1_d_200_313)">
<path d="M147.657 80.2428H-74.6567C-91.1189 80.2428 -104.464 93.5527 -104.464 109.971V131.029C-104.464 147.447 -91.1189 160.757 -74.6567 160.757H147.657C164.119 160.757 177.464 147.447 177.464 131.029V109.971C177.464 93.5527 164.119 80.2428 147.657 80.2428Z" fill="url(#paint0_linear_200_313)"/>
</g>
<g filter="url(#filter2_i_200_313)">
<path d="M127.785 87.6749H9.79745C-2.54918 87.6749 -12.5581 97.6573 -12.5581 109.971V129.79C-12.5581 142.104 -2.54918 152.086 9.79745 152.086H127.785C140.132 152.086 150.141 142.104 150.141 129.79V109.971C150.141 97.6573 140.132 87.6749 127.785 87.6749Z" fill="url(#paint1_radial_200_313)" fill-opacity="0.08"/>
</g>
<g filter="url(#filter3_i_200_313)">
<path d="M119.091 87.6749H33.3951C21.0485 87.6749 11.0396 97.6573 11.0396 109.971V129.79C11.0396 142.104 21.0485 152.086 33.3951 152.086H119.091C131.438 152.086 141.447 142.104 141.447 129.79V109.971C141.447 97.6573 131.438 87.6749 119.091 87.6749Z" fill="url(#paint2_radial_200_313)" fill-opacity="0.08"/>
</g>
<g filter="url(#filter4_i_200_313)">
<path d="M131.511 87.6749H56.9925C44.6459 87.6749 34.637 97.6573 34.637 109.971V129.79C34.637 142.104 44.6459 152.086 56.9925 152.086H131.511C143.858 152.086 153.867 142.104 153.867 129.79V109.971C153.867 97.6573 143.858 87.6749 131.511 87.6749Z" fill="url(#paint3_radial_200_313)" fill-opacity="0.08"/>
</g>
<g filter="url(#filter5_i_200_313)">
<path d="M124.059 87.6749H80.5902C68.2435 87.6749 58.2346 97.6573 58.2346 109.971V129.79C58.2346 142.104 68.2435 152.086 80.5902 152.086H124.059C136.406 152.086 146.415 142.104 146.415 129.79V109.971C146.415 97.6573 136.406 87.6749 124.059 87.6749Z" fill="url(#paint4_radial_200_313)" fill-opacity="0.08"/>
</g>
<g filter="url(#filter6_i_200_313)">
<path d="M147.657 87.6749H104.188C91.841 87.6749 81.832 97.6573 81.832 109.971V129.79C81.832 142.104 91.841 152.086 104.188 152.086H147.657C160.003 152.086 170.012 142.104 170.012 129.79V109.971C170.012 97.6573 160.003 87.6749 147.657 87.6749Z" fill="#D4D4D4"/>
</g>
<g opacity="0.5">
<g filter="url(#filter7_i_200_313)">
<path d="M114.124 107.494V134.161" stroke="black" stroke-opacity="0.12" stroke-width="3.5" stroke-linecap="round"/>
</g>
<g filter="url(#filter8_i_200_313)">
<path d="M121.989 107.494V134.161" stroke="black" stroke-opacity="0.12" stroke-width="3.5" stroke-linecap="round"/>
</g>
<g filter="url(#filter9_i_200_313)">
<path d="M129.856 107.494V134.161" stroke="black" stroke-opacity="0.12" stroke-width="3.5" stroke-linecap="round"/>
</g>
<g filter="url(#filter10_i_200_313)">
<path d="M137.721 107.494V134.161" stroke="black" stroke-opacity="0.12" stroke-width="3.5" stroke-linecap="round"/>
</g>
</g>
<path d="M151.734 205.056C151.996 204.843 152.069 204.49 151.933 204.201L151.83 204.037L151.734 203.944L123.938 181.168C123.626 180.912 123.161 180.953 122.901 181.261C122.828 181.347 122.776 181.449 122.751 181.558L122.73 181.724L122.73 192.193C122.73 193.292 121.899 194.201 120.822 194.345L120.522 194.364L-90.2619 194.364C-90.6112 194.364 -90.9043 194.603 -90.9792 194.922L-91 195.088L-91 213.912C-91 214.254 -90.7567 214.541 -90.4324 214.616L-90.2619 214.636L120.522 214.636C121.639 214.636 122.564 215.453 122.709 216.513L122.73 216.808L122.73 227.276C122.73 227.676 123.061 228 123.466 228C123.581 228 123.695 227.974 123.795 227.924L123.938 227.832L151.734 205.056Z" fill="url(#paint5_linear_200_313)"/>
</g>
<defs>
<filter id="filter0_d_200_313" x="-333" y="-78" width="550" height="282" filterUnits="userSpaceOnUse" color-interpolation-filters="sRGB">
<feFlood flood-opacity="0" result="BackgroundImageFix"/>
<feColorMatrix in="SourceAlpha" type="matrix" values="0 0 0 0 0 0 0 0 0 0 0 0 0 0 0 0 0 0 127 0" result="hardAlpha"/>
<feOffset dy="4"/>
<feGaussianBlur stdDeviation="12.5"/>
<feComposite in2="hardAlpha" operator="out"/>
<feColorMatrix type="matrix" values="0 0 0 0 0.0223706 0 0 0 0 0.171484 0 0 0 0 0.164029 0 0 0 0.25 0"/>
<feBlend mode="normal" in2="BackgroundImageFix" result="effect1_dropShadow_200_313"/>
<feBlend mode="normal" in="SourceGraphic" in2="effect1_dropShadow_200_313" result="shape"/>
</filter>
<filter id="filter1_d_200_313" x="-176.564" y="8.1428" width="426.128" height="224.714" filterUnits="userSpaceOnUse" color-interpolation-filters="sRGB">
<feFlood flood-opacity="0" result="BackgroundImageFix"/>
<feColorMatrix in="SourceAlpha" type="matrix" values="0 0 0 0 0 0 0 0 0 0 0 0 0 0 0 0 0 0 127 0" result="hardAlpha"/>
<feOffset/>
<feGaussianBlur stdDeviation="36.05"/>
<feComposite in2="hardAlpha" operator="out"/>
<feColorMatrix type="matrix" values="0 0 0 0 0.105882 0 0 0 0 0.764706 0 0 0 0 0.709804 0 0 0 0.35 0"/>
<feBlend mode="normal" in2="BackgroundImageFix" result="effect1_dropShadow_200_313"/>
<feBlend mode="normal" in="SourceGraphic" in2="effect1_dropShadow_200_313" result="shape"/>
</filter>
<filter id="filter2_i_200_313" x="-12.5581" y="87.6749" width="162.699" height="64.4115" filterUnits="userSpaceOnUse" color-interpolation-filters="sRGB">
<feFlood flood-opacity="0" result="BackgroundImageFix"/>
<feBlend mode="normal" in="SourceGraphic" in2="BackgroundImageFix" result="shape"/>
<feColorMatrix in="SourceAlpha" type="matrix" values="0 0 0 0 0 0 0 0 0 0 0 0 0 0 0 0 0 0 127 0" result="hardAlpha"/>
<feOffset/>
<feGaussianBlur stdDeviation="8.7"/>
<feComposite in2="hardAlpha" operator="arithmetic" k2="-1" k3="1"/>
<feColorMatrix type="matrix" values="0 0 0 0 0.831373 0 0 0 0 0.831373 0 0 0 0 0.831373 0 0 0 0.09 0"/>
<feBlend mode="normal" in2="shape" result="effect1_innerShadow_200_313"/>
</filter>
<filter id="filter3_i_200_313" x="11.0396" y="87.6749" width="130.407" height="64.4115" filterUnits="userSpaceOnUse" color-interpolation-filters="sRGB">
<feFlood flood-opacity="0" result="BackgroundImageFix"/>
<feBlend mode="normal" in="SourceGraphic" in2="BackgroundImageFix" result="shape"/>
<feColorMatrix in="SourceAlpha" type="matrix" values="0 0 0 0 0 0 0 0 0 0 0 0 0 0 0 0 0 0 127 0" result="hardAlpha"/>
<feOffset/>
<feGaussianBlur stdDeviation="8.7"/>
<feComposite in2="hardAlpha" operator="arithmetic" k2="-1" k3="1"/>
<feColorMatrix type="matrix" values="0 0 0 0 0.831373 0 0 0 0 0.831373 0 0 0 0 0.831373 0 0 0 0.09 0"/>
<feBlend mode="normal" in2="shape" result="effect1_innerShadow_200_313"/>
</filter>
<filter id="filter4_i_200_313" x="34.637" y="87.6749" width="119.23" height="64.4115" filterUnits="userSpaceOnUse" color-interpolation-filters="sRGB">
<feFlood flood-opacity="0" result="BackgroundImageFix"/>
<feBlend mode="normal" in="SourceGraphic" in2="BackgroundImageFix" result="shape"/>
<feColorMatrix in="SourceAlpha" type="matrix" values="0 0 0 0 0 0 0 0 0 0 0 0 0 0 0 0 0 0 127 0" result="hardAlpha"/>
<feOffset/>
<feGaussianBlur stdDeviation="8.7"/>
<feComposite in2="hardAlpha" operator="arithmetic" k2="-1" k3="1"/>
<feColorMatrix type="matrix" values="0 0 0 0 0.831373 0 0 0 0 0.831373 0 0 0 0 0.831373 0 0 0 0.09 0"/>
<feBlend mode="normal" in2="shape" result="effect1_innerShadow_200_313"/>
</filter>
<filter id="filter5_i_200_313" x="58.2346" y="87.6749" width="88.1802" height="64.4115" filterUnits="userSpaceOnUse" color-interpolation-filters="sRGB">
<feFlood flood-opacity="0" result="BackgroundImageFix"/>
<feBlend mode="normal" in="SourceGraphic" in2="BackgroundImageFix" result="shape"/>
<feColorMatrix in="SourceAlpha" type="matrix" values="0 0 0 0 0 0 0 0 0 0 0 0 0 0 0 0 0 0 127 0" result="hardAlpha"/>
<feOffset/>
<feGaussianBlur stdDeviation="8.7"/>
<feComposite in2="hardAlpha" operator="arithmetic" k2="-1" k3="1"/>
<feColorMatrix type="matrix" values="0 0 0 0 0.831373 0 0 0 0 0.831373 0 0 0 0 0.831373 0 0 0 0.09 0"/>
<feBlend mode="normal" in2="shape" result="effect1_innerShadow_200_313"/>
</filter>
<filter id="filter6_i_200_313" x="81.832" y="87.6749" width="88.1802" height="64.4115" filterUnits="userSpaceOnUse" color-interpolation-filters="sRGB">
<feFlood flood-opacity="0" result="BackgroundImageFix"/>
<feBlend mode="normal" in="SourceGraphic" in2="BackgroundImageFix" result="shape"/>
<feColorMatrix in="SourceAlpha" type="matrix" values="0 0 0 0 0 0 0 0 0 0 0 0 0 0 0 0 0 0 127 0" result="hardAlpha"/>
<feOffset/>
<feGaussianBlur stdDeviation="6"/>
<feComposite in2="hardAlpha" operator="arithmetic" k2="-1" k3="1"/>
<feColorMatrix type="matrix" values="0 0 0 0 0.0745098 0 0 0 0 0.627451 0 0 0 0 0.54902 0 0 0 0.33 0"/>
<feBlend mode="normal" in2="shape" result="effect1_innerShadow_200_313"/>
</filter>
<filter id="filter7_i_200_313" x="112.374" y="105.744" width="3.5" height="30.1676" filterUnits="userSpaceOnUse" color-interpolation-filters="sRGB">
<feFlood flood-opacity="0" result="BackgroundImageFix"/>
<feBlend mode="normal" in="SourceGraphic" in2="BackgroundImageFix" result="shape"/>
<feColorMatrix in="SourceAlpha" type="matrix" values="0 0 0 0 0 0 0 0 0 0 0 0 0 0 0 0 0 0 127 0" result="hardAlpha"/>
<feOffset/>
<feGaussianBlur stdDeviation="1.2"/>
<feComposite in2="hardAlpha" operator="arithmetic" k2="-1" k3="1"/>
<feColorMatrix type="matrix" values="0 0 0 0 0 0 0 0 0 0 0 0 0 0 0 0 0 0 0.14 0"/>
<feBlend mode="normal" in2="shape" result="effect1_innerShadow_200_313"/>
</filter>
<filter id="filter8_i_200_313" x="120.239" y="105.744" width="3.5" height="30.1676" filterUnits="userSpaceOnUse" color-interpolation-filters="sRGB">
<feFlood flood-opacity="0" result="BackgroundImageFix"/>
<feBlend mode="normal" in="SourceGraphic" in2="BackgroundImageFix" result="shape"/>
<feColorMatrix in="SourceAlpha" type="matrix" values="0 0 0 0 0 0 0 0 0 0 0 0 0 0 0 0 0 0 127 0" result="hardAlpha"/>
<feOffset/>
<feGaussianBlur stdDeviation="1.2"/>
<feComposite in2="hardAlpha" operator="arithmetic" k2="-1" k3="1"/>
<feColorMatrix type="matrix" values="0 0 0 0 0 0 0 0 0 0 0 0 0 0 0 0 0 0 0.14 0"/>
<feBlend mode="normal" in2="shape" result="effect1_innerShadow_200_313"/>
</filter>
<filter id="filter9_i_200_313" x="128.106" y="105.744" width="3.5" height="30.1676" filterUnits="userSpaceOnUse" color-interpolation-filters="sRGB">
<feFlood flood-opacity="0" result="BackgroundImageFix"/>
<feBlend mode="normal" in="SourceGraphic" in2="BackgroundImageFix" result="shape"/>
<feColorMatrix in="SourceAlpha" type="matrix" values="0 0 0 0 0 0 0 0 0 0 0 0 0 0 0 0 0 0 127 0" result="hardAlpha"/>
<feOffset/>
<feGaussianBlur stdDeviation="1.2"/>
<feComposite in2="hardAlpha" operator="arithmetic" k2="-1" k3="1"/>
<feColorMatrix type="matrix" values="0 0 0 0 0 0 0 0 0 0 0 0 0 0 0 0 0 0 0.14 0"/>
<feBlend mode="normal" in2="shape" result="effect1_innerShadow_200_313"/>
</filter>
<filter id="filter10_i_200_313" x="135.971" y="105.744" width="3.5" height="30.1676" filterUnits="userSpaceOnUse" color-interpolation-filters="sRGB">
<feFlood flood-opacity="0" result="BackgroundImageFix"/>
<feBlend mode="normal" in="SourceGraphic" in2="BackgroundImageFix" result="shape"/>
<feColorMatrix in="SourceAlpha" type="matrix" values="0 0 0 0 0 0 0 0 0 0 0 0 0 0 0 0 0 0 127 0" result="hardAlpha"/>
<feOffset/>
<feGaussianBlur stdDeviation="1.2"/>
<feComposite in2="hardAlpha" operator="arithmetic" k2="-1" k3="1"/>
<feColorMatrix type="matrix" values="0 0 0 0 0 0 0 0 0 0 0 0 0 0 0 0 0 0 0.14 0"/>
<feBlend mode="normal" in2="shape" result="effect1_innerShadow_200_313"/>
</filter>
<linearGradient id="paint0_linear_200_313" x1="-104.464" y1="120.5" x2="177.464" y2="120.5" gradientUnits="userSpaceOnUse">
<stop stop-color="#21C2C2"/>
<stop offset="1" stop-color="#14C2A7"/>
</linearGradient>
<radialGradient id="paint1_radial_200_313" cx="0" cy="0" r="1" gradientUnits="userSpaceOnUse" gradientTransform="translate(68.7913 119.881) rotate(90) scale(32.2058 81.3494)">
<stop stop-color="#D4D4D4" stop-opacity="0.55"/>
<stop offset="1" stop-color="#D4D4D4"/>
</radialGradient>
<radialGradient id="paint2_radial_200_313" cx="0" cy="0" r="1" gradientUnits="userSpaceOnUse" gradientTransform="translate(76.2433 119.881) rotate(90) scale(32.2058 65.2037)">
<stop stop-color="#D4D4D4" stop-opacity="0.55"/>
<stop offset="1" stop-color="#D4D4D4"/>
</radialGradient>
<radialGradient id="paint3_radial_200_313" cx="0" cy="0" r="1" gradientUnits="userSpaceOnUse" gradientTransform="translate(94.2518 119.881) rotate(90) scale(32.2058 59.6148)">
<stop stop-color="#D4D4D4" stop-opacity="0.55"/>
<stop offset="1" stop-color="#D4D4D4"/>
</radialGradient>
<radialGradient id="paint4_radial_200_313" cx="0" cy="0" r="1" gradientUnits="userSpaceOnUse" gradientTransform="translate(102.325 119.881) rotate(90) scale(32.2058 44.0901)">
<stop stop-color="#D4D4D4" stop-opacity="0.55"/>
<stop offset="1" stop-color="#D4D4D4"/>
</radialGradient>
<linearGradient id="paint5_linear_200_313" x1="-15" y1="204.5" x2="152" y2="204.5" gradientUnits="userSpaceOnUse">
<stop stop-color="#22C3C0" stop-opacity="0"/>
<stop offset="1" stop-color="#15C3A8"/>
</linearGradient>
<clipPath id="clip0_200_313">
<rect width="210" height="290" fill="white"/>
</clipPath>
</defs>
</svg>
