<svg width="210" height="290" viewBox="0 0 210 290" fill="none" xmlns="http://www.w3.org/2000/svg">
<g clip-path="url(#clip0_195_206)">
<path opacity="0.09" d="M41 67C41 52.0883 53.0883 40 68 40H113.761C120.227 40 126.478 42.3202 131.377 46.5388L159.616 70.8519C165.574 75.9811 169 83.4519 169 91.3131V170C169 184.912 156.912 197 142 197H68C53.0883 197 41 184.912 41 170V67Z" fill="url(#paint0_radial_195_206)"/>
<path opacity="0.09" d="M50 67C50 57.0589 58.0589 49 68 49H114.309C118.711 49 122.96 50.613 126.253 53.534L153.944 78.0961C157.796 81.5123 160 86.414 160 91.5621V170C160 179.941 151.941 188 142 188H68C58.0589 188 50 179.941 50 170V67Z" fill="url(#paint1_radial_195_206)"/>
<g filter="url(#filter0_d_195_206)">
<path d="M59 70C59 62.8203 64.8203 57 72 57H113.355C116.66 57 119.841 58.2589 122.251 60.5206L146.896 83.6486C149.515 86.106 151 89.5371 151 93.1281V167C151 174.18 145.18 180 138 180H72C64.8203 180 59 174.18 59 167V70Z" fill="url(#paint2_radial_195_206)"/>
</g>
<path d="M84.9584 143.4C82.9318 143.4 81.1318 142.973 79.5584 142.12C77.9851 141.24 76.7318 140.04 75.7984 138.52C74.8918 137 74.4384 135.267 74.4384 133.32C74.4384 131.4 74.8784 129.693 75.7584 128.2C76.6651 126.68 77.8918 125.48 79.4384 124.6C80.9851 123.693 82.7051 123.24 84.5984 123.24C86.4651 123.24 88.1051 123.667 89.5184 124.52C90.9584 125.347 92.0784 126.493 92.8784 127.96C93.7051 129.4 94.1184 131.04 94.1184 132.88C94.1184 133.227 94.0918 133.587 94.0384 133.96C94.0118 134.307 93.9451 134.707 93.8384 135.16L77.5984 135.2V131.28L91.3984 131.24L89.2784 132.88C89.2251 131.733 89.0118 130.773 88.6384 130C88.2918 129.227 87.7718 128.64 87.0784 128.24C86.4118 127.813 85.5851 127.6 84.5984 127.6C83.5584 127.6 82.6518 127.84 81.8784 128.32C81.1051 128.773 80.5051 129.427 80.0784 130.28C79.6784 131.107 79.4784 132.093 79.4784 133.24C79.4784 134.413 79.6918 135.44 80.1184 136.32C80.5718 137.173 81.2118 137.84 82.0384 138.32C82.8651 138.773 83.8251 139 84.9184 139C85.9051 139 86.7984 138.84 87.5984 138.52C88.3984 138.173 89.0918 137.667 89.6784 137L92.7584 140.08C91.8251 141.173 90.6784 142 89.3184 142.56C87.9851 143.12 86.5318 143.4 84.9584 143.4ZM108.931 143L103.851 135.16L102.771 134.36L95.2513 123.68H101.451L106.131 130.76L107.131 131.52L115.091 143H108.931ZM94.8513 143L102.731 131.96L105.731 135.52L100.771 143H94.8513ZM107.331 134.32L104.251 130.8L108.851 123.68H114.731L107.331 134.32ZM126.521 143.4C124.494 143.4 122.694 142.973 121.121 142.12C119.548 141.24 118.294 140.04 117.361 138.52C116.454 137 116.001 135.267 116.001 133.32C116.001 131.4 116.441 129.693 117.321 128.2C118.228 126.68 119.454 125.48 121.001 124.6C122.548 123.693 124.268 123.24 126.161 123.24C128.028 123.24 129.668 123.667 131.081 124.52C132.521 125.347 133.641 126.493 134.441 127.96C135.268 129.4 135.681 131.04 135.681 132.88C135.681 133.227 135.654 133.587 135.601 133.96C135.574 134.307 135.508 134.707 135.401 135.16L119.161 135.2V131.28L132.961 131.24L130.841 132.88C130.788 131.733 130.574 130.773 130.201 130C129.854 129.227 129.334 128.64 128.641 128.24C127.974 127.813 127.148 127.6 126.161 127.6C125.121 127.6 124.214 127.84 123.441 128.32C122.668 128.773 122.068 129.427 121.641 130.28C121.241 131.107 121.041 132.093 121.041 133.24C121.041 134.413 121.254 135.44 121.681 136.32C122.134 137.173 122.774 137.84 123.601 138.32C124.428 138.773 125.388 139 126.481 139C127.468 139 128.361 138.84 129.161 138.52C129.961 138.173 130.654 137.667 131.241 137L134.321 140.08C133.388 141.173 132.241 142 130.881 142.56C129.548 143.12 128.094 143.4 126.521 143.4Z" fill="white"/>
<path d="M77.8441 116.27C76.3141 116.27 75.0001 116.009 73.9021 115.487C72.8221 114.965 71.8411 114.182 70.9591 113.138L73.3891 110.708C73.9471 111.446 74.5951 112.022 75.3331 112.436C76.0711 112.832 76.9711 113.03 78.0331 113.03C78.9871 113.03 79.7431 112.841 80.3011 112.463C80.8771 112.085 81.1651 111.563 81.1651 110.897C81.1651 110.321 81.0031 109.853 80.6791 109.493C80.3551 109.133 79.9231 108.827 79.3831 108.575C78.8611 108.323 78.2761 108.098 77.6281 107.9C76.9981 107.684 76.3591 107.441 75.7111 107.171C75.0811 106.901 74.4961 106.568 73.9561 106.172C73.4341 105.758 73.0111 105.236 72.6871 104.606C72.3631 103.958 72.2011 103.148 72.2011 102.176C72.2011 101.024 72.4801 100.043 73.0381 99.233C73.5961 98.423 74.3611 97.802 75.3331 97.37C76.3051 96.938 77.4031 96.722 78.6271 96.722C79.9231 96.722 81.0931 96.965 82.1371 97.451C83.1811 97.937 84.0361 98.567 84.7021 99.341L82.2721 101.771C81.7141 101.159 81.1381 100.709 80.5441 100.421C79.9681 100.133 79.3111 99.989 78.5731 99.989C77.7271 99.989 77.0611 100.151 76.5751 100.475C76.0891 100.799 75.8461 101.267 75.8461 101.879C75.8461 102.401 76.0081 102.824 76.3321 103.148C76.6561 103.472 77.0791 103.751 77.6011 103.985C78.1411 104.219 78.7261 104.444 79.3561 104.66C80.0041 104.876 80.6431 105.119 81.2731 105.389C81.9211 105.659 82.5061 106.01 83.0281 106.442C83.5681 106.874 84.0001 107.432 84.3241 108.116C84.6481 108.782 84.8101 109.61 84.8101 110.6C84.8101 112.364 84.1891 113.75 82.9471 114.758C81.7051 115.766 80.0041 116.27 77.8441 116.27ZM93.4617 116.27C92.0937 116.27 90.8787 115.982 89.8167 115.406C88.7547 114.812 87.9087 114.002 87.2787 112.976C86.6667 111.95 86.3607 110.78 86.3607 109.466C86.3607 108.17 86.6577 107.018 87.2517 106.01C87.8637 104.984 88.6917 104.174 89.7357 103.58C90.7797 102.968 91.9407 102.662 93.2187 102.662C94.4787 102.662 95.5857 102.95 96.5397 103.526C97.5117 104.084 98.2677 104.858 98.8077 105.848C99.3657 106.82 99.6447 107.927 99.6447 109.169C99.6447 109.403 99.6267 109.646 99.5907 109.898C99.5727 110.132 99.5277 110.402 99.4557 110.708L88.4937 110.735V108.089L97.8087 108.062L96.3777 109.169C96.3417 108.395 96.1977 107.747 95.9457 107.225C95.7117 106.703 95.3607 106.307 94.8927 106.037C94.4427 105.749 93.8847 105.605 93.2187 105.605C92.5167 105.605 91.9047 105.767 91.3827 106.091C90.8607 106.397 90.4557 106.838 90.1677 107.414C89.8977 107.972 89.7627 108.638 89.7627 109.412C89.7627 110.204 89.9067 110.897 90.1947 111.491C90.5007 112.067 90.9327 112.517 91.4907 112.841C92.0487 113.147 92.6967 113.3 93.4347 113.3C94.1007 113.3 94.7037 113.192 95.2437 112.976C95.7837 112.742 96.2517 112.4 96.6477 111.95L98.7267 114.029C98.0967 114.767 97.3227 115.325 96.4047 115.703C95.5047 116.081 94.5237 116.27 93.4617 116.27ZM103.459 116V97.532H106.996V116H103.459ZM100.408 106.064V102.959H110.047V106.064H100.408ZM117.598 116.27C116.446 116.27 115.42 116.027 114.52 115.541C113.638 115.055 112.945 114.38 112.441 113.516C111.937 112.652 111.685 111.653 111.685 110.519V102.959H115.249V110.438C115.249 110.978 115.339 111.446 115.519 111.842C115.699 112.22 115.969 112.508 116.329 112.706C116.689 112.904 117.112 113.003 117.598 113.003C118.336 113.003 118.912 112.778 119.326 112.328C119.74 111.878 119.947 111.248 119.947 110.438V102.959H123.484V110.519C123.484 111.671 123.232 112.679 122.728 113.543C122.242 114.407 121.549 115.082 120.649 115.568C119.767 116.036 118.75 116.27 117.598 116.27ZM133.537 116.27C132.601 116.27 131.755 116.081 130.999 115.703C130.243 115.307 129.64 114.776 129.19 114.11C128.74 113.444 128.497 112.679 128.461 111.815V107.198C128.497 106.334 128.74 105.569 129.19 104.903C129.658 104.219 130.261 103.679 130.999 103.283C131.755 102.887 132.601 102.689 133.537 102.689C134.743 102.689 135.823 102.986 136.777 103.58C137.731 104.174 138.478 104.984 139.018 106.01C139.576 107.036 139.855 108.197 139.855 109.493C139.855 110.771 139.576 111.923 139.018 112.949C138.478 113.975 137.731 114.785 136.777 115.379C135.823 115.973 134.743 116.27 133.537 116.27ZM132.916 113.003C133.564 113.003 134.14 112.859 134.644 112.571C135.148 112.265 135.535 111.851 135.805 111.329C136.093 110.789 136.237 110.168 136.237 109.466C136.237 108.782 136.093 108.179 135.805 107.657C135.535 107.117 135.148 106.703 134.644 106.415C134.14 106.109 133.564 105.956 132.916 105.956C132.286 105.956 131.719 106.109 131.215 106.415C130.711 106.703 130.315 107.117 130.027 107.657C129.757 108.179 129.622 108.782 129.622 109.466C129.622 110.168 129.757 110.789 130.027 111.329C130.315 111.851 130.702 112.265 131.188 112.571C131.692 112.859 132.268 113.003 132.916 113.003ZM126.301 121.454V102.959H129.838V106.388L129.244 109.547L129.811 112.706V121.454H126.301Z" fill="white"/>
<g filter="url(#filter1_d_195_206)">
<path d="M114.123 137.29C113.785 134.634 116.83 132.899 118.942 134.543L175.953 178.932C177.844 180.404 177.331 183.391 175.056 184.146L159.256 189.394C157.459 189.99 156.657 192.082 157.595 193.726L167.851 211.72C168.671 213.16 168.169 214.992 166.73 215.812L159.62 219.864C158.181 220.685 156.349 220.183 155.528 218.743L145.274 200.752C144.336 199.106 142.127 198.731 140.698 199.974L128.208 210.842C126.399 212.416 123.566 211.337 123.263 208.959L114.123 137.29Z" fill="#ECF0F0"/>
<path d="M114.123 137.29C113.785 134.634 116.83 132.899 118.942 134.543L175.953 178.932C177.844 180.404 177.331 183.391 175.056 184.146L159.256 189.394C157.459 189.99 156.657 192.082 157.595 193.726L167.851 211.72C168.671 213.16 168.169 214.992 166.73 215.812L159.62 219.864C158.181 220.685 156.349 220.183 155.528 218.743L145.274 200.752C144.336 199.106 142.127 198.731 140.698 199.974L128.208 210.842C126.399 212.416 123.566 211.337 123.263 208.959L114.123 137.29Z" stroke="#2F3333" stroke-width="5" stroke-linejoin="round"/>
</g>
<mask id="mask0_195_206" style="mask-type:alpha" maskUnits="userSpaceOnUse" x="59" y="57" width="92" height="123">
<path d="M59 70C59 62.8203 64.8203 57 72 57H113.355C116.66 57 119.841 58.2589 122.251 60.5206L146.896 83.6486C149.515 86.106 151 89.5371 151 93.1281V167C151 174.18 145.18 180 138 180H72C64.8203 180 59 174.18 59 167V70Z" fill="#D9D9D9"/>
</mask>
<g mask="url(#mask0_195_206)">
<g filter="url(#filter2_d_195_206)">
<rect x="118" y="42" width="49" height="45" rx="9" fill="#A7E6DF" fill-opacity="0.68" shape-rendering="crispEdges"/>
</g>
</g>
</g>
<defs>
<filter id="filter0_d_195_206" x="-26.2" y="-28.2" width="262.4" height="293.4" filterUnits="userSpaceOnUse" color-interpolation-filters="sRGB">
<feFlood flood-opacity="0" result="BackgroundImageFix"/>
<feColorMatrix in="SourceAlpha" type="matrix" values="0 0 0 0 0 0 0 0 0 0 0 0 0 0 0 0 0 0 127 0" result="hardAlpha"/>
<feOffset/>
<feGaussianBlur stdDeviation="42.6"/>
<feComposite in2="hardAlpha" operator="out"/>
<feColorMatrix type="matrix" values="0 0 0 0 0.0929167 0 0 0 0 0.929167 0 0 0 0 0.887354 0 0 0 0.57 0"/>
<feBlend mode="normal" in2="BackgroundImageFix" result="effect1_dropShadow_195_206"/>
<feBlend mode="normal" in="SourceGraphic" in2="effect1_dropShadow_195_206" result="shape"/>
</filter>
<filter id="filter1_d_195_206" x="104.596" y="127.395" width="82.0164" height="105.364" filterUnits="userSpaceOnUse" color-interpolation-filters="sRGB">
<feFlood flood-opacity="0" result="BackgroundImageFix"/>
<feColorMatrix in="SourceAlpha" type="matrix" values="0 0 0 0 0 0 0 0 0 0 0 0 0 0 0 0 0 0 127 0" result="hardAlpha"/>
<feOffset dy="3"/>
<feGaussianBlur stdDeviation="3.5"/>
<feComposite in2="hardAlpha" operator="out"/>
<feColorMatrix type="matrix" values="0 0 0 0 0 0 0 0 0 0 0 0 0 0 0 0 0 0 0.25 0"/>
<feBlend mode="normal" in2="BackgroundImageFix" result="effect1_dropShadow_195_206"/>
<feBlend mode="normal" in="SourceGraphic" in2="effect1_dropShadow_195_206" result="shape"/>
</filter>
<filter id="filter2_d_195_206" x="109.9" y="34.9" width="65.2" height="61.2" filterUnits="userSpaceOnUse" color-interpolation-filters="sRGB">
<feFlood flood-opacity="0" result="BackgroundImageFix"/>
<feColorMatrix in="SourceAlpha" type="matrix" values="0 0 0 0 0 0 0 0 0 0 0 0 0 0 0 0 0 0 127 0" result="hardAlpha"/>
<feOffset dy="1"/>
<feGaussianBlur stdDeviation="4.05"/>
<feComposite in2="hardAlpha" operator="out"/>
<feColorMatrix type="matrix" values="0 0 0 0 0 0 0 0 0 0 0 0 0 0 0 0 0 0 0.1 0"/>
<feBlend mode="normal" in2="BackgroundImageFix" result="effect1_dropShadow_195_206"/>
<feBlend mode="normal" in="SourceGraphic" in2="effect1_dropShadow_195_206" result="shape"/>
</filter>
<radialGradient id="paint0_radial_195_206" cx="0" cy="0" r="1" gradientUnits="userSpaceOnUse" gradientTransform="translate(111.957 120.415) rotate(-134.283) scale(101.628 76.4612)">
<stop stop-color="#21C2C0"/>
<stop offset="1" stop-color="#16C2A9"/>
</radialGradient>
<radialGradient id="paint1_radial_195_206" cx="0" cy="0" r="1" gradientUnits="userSpaceOnUse" gradientTransform="translate(110.978 120.195) rotate(-133.43) scale(88.6995 66.6549)">
<stop stop-color="#21C2C0"/>
<stop offset="1" stop-color="#16C2A9"/>
</radialGradient>
<radialGradient id="paint2_radial_195_206" cx="0" cy="0" r="1" gradientUnits="userSpaceOnUse" gradientTransform="translate(110 120) rotate(-131.82) scale(76.4853 57.2085)">
<stop stop-color="#21C2C0"/>
<stop offset="1" stop-color="#16C2A9"/>
</radialGradient>
<clipPath id="clip0_195_206">
<rect width="210" height="290" fill="white"/>
</clipPath>
</defs>
</svg>
