<svg width="210" height="290" viewBox="0 0 210 290" fill="none" xmlns="http://www.w3.org/2000/svg">
<g clip-path="url(#clip0_195_206)">
<g clip-path="url(#clip1_195_206)">
<path opacity="0.09" d="M31.2476 53.0752C31.2476 35.9211 45.1779 22.015 62.3618 22.015H115.096C122.547 22.015 129.751 24.6841 135.396 29.5371L167.938 57.5063C174.804 63.4068 178.752 72.001 178.752 81.0444V171.564C178.752 188.718 164.822 202.624 147.638 202.624H62.3618C45.1779 202.624 31.2476 188.718 31.2476 171.564V53.0752Z" fill="url(#paint0_radial_195_206)"/>
<path opacity="0.09" d="M41.6191 53.0752C41.6191 41.6392 50.9061 32.3684 62.362 32.3684H115.728C120.8 32.3684 125.697 34.224 129.492 37.5842L161.402 65.8399C165.841 69.7698 168.381 75.4086 168.381 81.3308V171.564C168.381 183 159.094 192.271 147.638 192.271H62.362C50.9061 192.271 41.6191 183 41.6191 171.564V53.0752Z" fill="url(#paint1_radial_195_206)"/>
<g filter="url(#filter0_d_195_206)">
<path d="M51.9905 56.5263C51.9905 48.2669 58.6977 41.5714 66.9714 41.5714H114.628C118.437 41.5714 122.102 43.0196 124.88 45.6214L153.28 72.2273C156.298 75.0543 158.01 79.0013 158.01 83.1323V168.113C158.01 176.372 151.303 183.068 143.029 183.068H66.9714C58.6977 183.068 51.9905 176.372 51.9905 168.113V56.5263Z" fill="url(#paint2_radial_195_206)"/>
</g>
<path d="M81.9045 140.964C79.5691 140.964 77.4948 140.473 75.6817 139.491C73.8686 138.479 72.4244 137.099 71.3487 135.35C70.304 133.602 69.7815 131.608 69.7815 129.368C69.7815 127.159 70.2885 125.196 71.3026 123.478C72.3475 121.73 73.7611 120.349 75.5434 119.337C77.3258 118.293 79.3079 117.772 81.4897 117.772C83.6408 117.772 85.5307 118.264 87.1594 119.245C88.8188 120.196 90.1095 121.515 91.0314 123.202C91.9841 124.859 92.4604 126.745 92.4604 128.862C92.4604 129.261 92.4297 129.675 92.3682 130.104C92.3375 130.504 92.2606 130.964 92.1377 131.485L73.423 131.531V127.021L89.3259 126.975L86.8828 128.862C86.8214 127.542 86.5756 126.438 86.1453 125.549C85.7459 124.66 85.1466 123.984 84.3476 123.524C83.5794 123.033 82.6267 122.788 81.4897 122.788C80.2912 122.788 79.2465 123.064 78.3552 123.616C77.4641 124.137 76.7726 124.89 76.2809 125.871C75.82 126.822 75.5895 127.957 75.5895 129.276C75.5895 130.625 75.8354 131.807 76.327 132.819C76.8495 133.801 77.587 134.568 78.5396 135.12C79.4923 135.641 80.5986 135.902 81.8585 135.902C82.9955 135.902 84.0249 135.718 84.9468 135.35C85.8687 134.951 86.6678 134.369 87.3438 133.602L90.8931 137.145C89.8176 138.402 88.4962 139.353 86.9289 139.998C85.3924 140.642 83.7177 140.964 81.9045 140.964ZM109.53 140.504L103.676 131.485L102.431 130.565L93.7659 118.279H100.91L106.303 126.423L107.456 127.297L116.629 140.504H109.53ZM93.3049 140.504L102.385 127.804L105.842 131.899L100.127 140.504H93.3049ZM107.686 130.519L104.137 126.469L109.438 118.279H116.214L107.686 130.519ZM129.8 140.964C127.465 140.964 125.39 140.473 123.578 139.491C121.765 138.479 120.32 137.099 119.245 135.35C118.199 133.602 117.677 131.608 117.677 129.368C117.677 127.159 118.184 125.196 119.199 123.478C120.244 121.73 121.657 120.349 123.439 119.337C125.222 118.293 127.204 117.772 129.386 117.772C131.537 117.772 133.427 118.264 135.055 119.245C136.715 120.196 138.005 121.515 138.927 123.202C139.88 124.859 140.356 126.745 140.356 128.862C140.356 129.261 140.325 129.675 140.264 130.104C140.233 130.504 140.157 130.964 140.034 131.485L121.319 131.531V127.021L137.222 126.975L134.779 128.862C134.718 127.542 134.471 126.438 134.041 125.549C133.641 124.66 133.042 123.984 132.244 123.524C131.475 123.033 130.523 122.788 129.386 122.788C128.187 122.788 127.142 123.064 126.251 123.616C125.36 124.137 124.669 124.89 124.177 125.871C123.716 126.822 123.485 127.957 123.485 129.276C123.485 130.625 123.731 131.807 124.223 132.819C124.745 133.801 125.483 134.568 126.436 135.12C127.389 135.641 128.495 135.902 129.754 135.902C130.892 135.902 131.921 135.718 132.843 135.35C133.765 134.951 134.563 134.369 135.24 133.602L138.789 137.145C137.714 138.402 136.392 139.353 134.825 139.998C133.289 140.642 131.613 140.964 129.8 140.964Z" fill="white"/>
<path d="M73.7061 109.754C71.943 109.754 70.4287 109.454 69.1634 108.853C67.9189 108.253 66.7884 107.352 65.772 106.151L68.5723 103.356C69.2153 104.205 69.962 104.867 70.8125 105.344C71.6629 105.799 72.7001 106.027 73.9239 106.027C75.0233 106.027 75.8945 105.81 76.5375 105.375C77.2013 104.94 77.5332 104.339 77.5332 103.573C77.5332 102.911 77.3465 102.372 76.9731 101.958C76.5997 101.544 76.1019 101.192 75.4796 100.902C74.8781 100.612 74.2039 100.353 73.4572 100.126C72.7312 99.877 71.9948 99.5975 71.2481 99.2869C70.5221 98.9763 69.8479 98.5932 69.2257 98.1376C68.6241 97.6614 68.1367 97.0609 67.7633 96.3362C67.3899 95.5907 67.2032 94.6589 67.2032 93.5408C67.2032 92.2155 67.5247 91.087 68.1678 90.1552C68.8108 89.2234 69.6924 88.509 70.8125 88.012C71.9326 87.5151 73.1979 87.2666 74.6084 87.2666C76.1019 87.2666 77.4502 87.5461 78.6533 88.1052C79.8564 88.6643 80.8417 89.389 81.6091 90.2794L78.8089 93.0749C78.1658 92.3708 77.5021 91.8531 76.8175 91.5218C76.1538 91.1905 75.3967 91.0249 74.5462 91.0249C73.5713 91.0249 72.8038 91.2112 72.2437 91.584C71.6837 91.9567 71.4037 92.4951 71.4037 93.1991C71.4037 93.7996 71.5903 94.2862 71.9637 94.6589C72.3371 95.0316 72.8245 95.3526 73.4261 95.6218C74.0484 95.891 74.7225 96.1498 75.4485 96.3983C76.1953 96.6468 76.9316 96.9263 77.6576 97.2369C78.4044 97.5475 79.0785 97.9513 79.6801 98.4483C80.3023 98.9452 80.8002 99.5871 81.1735 100.374C81.5469 101.14 81.7336 102.093 81.7336 103.232C81.7336 105.261 81.018 106.855 79.5867 108.015C78.1555 109.174 76.1953 109.754 73.7061 109.754ZM91.7035 109.754C90.1271 109.754 88.7269 109.423 87.5031 108.76C86.2793 108.077 85.3044 107.145 84.5784 105.965C83.8731 104.785 83.5205 103.439 83.5205 101.927C83.5205 100.436 83.8627 99.1109 84.5473 97.9513C85.2525 96.771 86.2067 95.8392 87.4098 95.1559C88.6129 94.4519 89.9508 94.0998 91.4235 94.0998C92.8755 94.0998 94.1512 94.4311 95.2506 95.0938C96.3707 95.7357 97.2419 96.6261 97.8642 97.7649C98.5072 98.8831 98.8287 100.157 98.8287 101.585C98.8287 101.855 98.808 102.134 98.7665 102.424C98.7457 102.693 98.6939 103.004 98.6109 103.356L85.9785 103.387V100.343L96.7129 100.312L95.0639 101.585C95.0224 100.695 94.8565 99.9495 94.5661 99.349C94.2964 98.7485 93.8919 98.293 93.3526 97.9824C92.834 97.651 92.191 97.4854 91.4235 97.4854C90.6145 97.4854 89.9093 97.6718 89.3077 98.0445C88.7062 98.3965 88.2395 98.9038 87.9076 99.5664C87.5965 100.208 87.4409 100.974 87.4409 101.865C87.4409 102.776 87.6068 103.573 87.9387 104.256C88.2913 104.919 88.7892 105.437 89.4322 105.81C90.0752 106.162 90.822 106.338 91.6724 106.338C92.4399 106.338 93.1348 106.213 93.7571 105.965C94.3794 105.696 94.9187 105.302 95.375 104.785L97.7708 107.176C97.0448 108.025 96.1529 108.667 95.095 109.102C94.0579 109.537 92.9274 109.754 91.7035 109.754ZM103.224 109.444V88.1984H107.3V109.444H103.224ZM99.7083 98.0134V94.4415H110.816V98.0134H99.7083ZM119.518 109.754C118.19 109.754 117.008 109.475 115.971 108.916C114.954 108.356 114.156 107.58 113.575 106.586C112.994 105.592 112.704 104.443 112.704 103.138V94.4415H116.811V103.045C116.811 103.666 116.915 104.205 117.122 104.66C117.329 105.095 117.641 105.426 118.055 105.654C118.47 105.882 118.958 105.996 119.518 105.996C120.368 105.996 121.032 105.737 121.509 105.219C121.986 104.702 122.225 103.977 122.225 103.045V94.4415H126.301V103.138C126.301 104.464 126.01 105.623 125.429 106.617C124.869 107.611 124.071 108.388 123.034 108.947C122.017 109.485 120.845 109.754 119.518 109.754ZM137.886 109.754C136.807 109.754 135.832 109.537 134.961 109.102C134.09 108.646 133.395 108.035 132.876 107.269C132.358 106.503 132.078 105.623 132.036 104.629V99.3179C132.078 98.324 132.358 97.444 132.876 96.6778C133.415 95.891 134.11 95.2698 134.961 94.8142C135.832 94.3587 136.807 94.1309 137.886 94.1309C139.275 94.1309 140.52 94.4726 141.619 95.1559C142.719 95.8392 143.579 96.771 144.202 97.9513C144.845 99.1316 145.166 100.467 145.166 101.958C145.166 103.428 144.845 104.753 144.202 105.934C143.579 107.114 142.719 108.046 141.619 108.729C140.52 109.412 139.275 109.754 137.886 109.754ZM137.17 105.996C137.917 105.996 138.58 105.83 139.161 105.499C139.742 105.147 140.188 104.671 140.499 104.07C140.831 103.449 140.997 102.735 140.997 101.927C140.997 101.14 140.831 100.446 140.499 99.846C140.188 99.2248 139.742 98.7485 139.161 98.4172C138.58 98.0652 137.917 97.8892 137.17 97.8892C136.444 97.8892 135.791 98.0652 135.21 98.4172C134.629 98.7485 134.173 99.2248 133.841 99.846C133.53 100.446 133.374 101.14 133.374 101.927C133.374 102.735 133.53 103.449 133.841 104.07C134.173 104.671 134.619 105.147 135.179 105.499C135.759 105.83 136.423 105.996 137.17 105.996ZM129.547 115.718V94.4415H133.623V98.3861L132.938 102.02L133.592 105.654V115.718H129.547Z" fill="white"/>
<mask id="mask0_195_206" style="mask-type:alpha" maskUnits="userSpaceOnUse" x="51" y="41" width="108" height="143">
<path d="M51.9905 56.5263C51.9905 48.2669 58.6977 41.5714 66.9714 41.5714H114.628C118.437 41.5714 122.102 43.0196 124.88 45.6214L153.28 72.2273C156.298 75.0543 158.01 79.0013 158.01 83.1323V168.113C158.01 176.372 151.303 183.068 143.029 183.068H66.9714C58.6977 183.068 51.9905 176.372 51.9905 168.113V56.5263Z" fill="#D9D9D9"/>
</mask>
<g mask="url(#mask0_195_206)">
<g filter="url(#filter1_d_195_206)">
<path d="M166.076 24.3158H130.352C124.624 24.3158 119.981 28.9512 119.981 34.6692V65.7293C119.981 71.4473 124.624 76.0827 130.352 76.0827H166.076C171.804 76.0827 176.448 71.4473 176.448 65.7293V34.6692C176.448 28.9512 171.804 24.3158 166.076 24.3158Z" fill="#A7E6DF" fill-opacity="0.68"/>
</g>
</g>
</g>
<g filter="url(#filter2_d_195_206)">
<path d="M114.123 140.29C113.785 137.634 116.83 135.899 118.942 137.543L175.953 181.932C177.844 183.404 177.331 186.391 175.056 187.146L159.256 192.394C157.459 192.99 156.657 195.082 157.595 196.726L167.851 214.72C168.671 216.16 168.169 217.992 166.73 218.812L159.62 222.864C158.181 223.685 156.349 223.183 155.528 221.743L145.274 203.752C144.336 202.106 142.127 201.731 140.698 202.974L128.208 213.842C126.399 215.416 123.566 214.337 123.263 211.959L114.123 140.29Z" fill="#EEF8F7"/>
<path d="M114.123 140.29C113.785 137.634 116.83 135.899 118.942 137.543L175.953 181.932C177.844 183.404 177.331 186.391 175.056 187.146L159.256 192.394C157.459 192.99 156.657 195.082 157.595 196.726L167.851 214.72C168.671 216.16 168.169 217.992 166.73 218.812L159.62 222.864C158.181 223.685 156.349 223.183 155.528 221.743L145.274 203.752C144.336 202.106 142.127 201.731 140.698 202.974L128.208 213.842C126.399 215.416 123.566 214.337 123.263 211.959L114.123 140.29Z" stroke="#475F5F" stroke-width="5" stroke-linejoin="round"/>
</g>
</g>
<defs>
<filter id="filter0_d_195_206" x="-33.2095" y="-43.6286" width="276.419" height="311.896" filterUnits="userSpaceOnUse" color-interpolation-filters="sRGB">
<feFlood flood-opacity="0" result="BackgroundImageFix"/>
<feColorMatrix in="SourceAlpha" type="matrix" values="0 0 0 0 0 0 0 0 0 0 0 0 0 0 0 0 0 0 127 0" result="hardAlpha"/>
<feOffset/>
<feGaussianBlur stdDeviation="42.6"/>
<feComposite in2="hardAlpha" operator="out"/>
<feColorMatrix type="matrix" values="0 0 0 0 0.0929167 0 0 0 0 0.929167 0 0 0 0 0.887354 0 0 0 0.57 0"/>
<feBlend mode="normal" in2="BackgroundImageFix" result="effect1_dropShadow_195_206"/>
<feBlend mode="normal" in="SourceGraphic" in2="effect1_dropShadow_195_206" result="shape"/>
</filter>
<filter id="filter1_d_195_206" x="111.881" y="17.2158" width="72.6666" height="67.967" filterUnits="userSpaceOnUse" color-interpolation-filters="sRGB">
<feFlood flood-opacity="0" result="BackgroundImageFix"/>
<feColorMatrix in="SourceAlpha" type="matrix" values="0 0 0 0 0 0 0 0 0 0 0 0 0 0 0 0 0 0 127 0" result="hardAlpha"/>
<feOffset dy="1"/>
<feGaussianBlur stdDeviation="4.05"/>
<feComposite in2="hardAlpha" operator="out"/>
<feColorMatrix type="matrix" values="0 0 0 0 0 0 0 0 0 0 0 0 0 0 0 0 0 0 0.1 0"/>
<feBlend mode="normal" in2="BackgroundImageFix" result="effect1_dropShadow_195_206"/>
<feBlend mode="normal" in="SourceGraphic" in2="effect1_dropShadow_195_206" result="shape"/>
</filter>
<filter id="filter2_d_195_206" x="104.596" y="130.395" width="82.0164" height="105.364" filterUnits="userSpaceOnUse" color-interpolation-filters="sRGB">
<feFlood flood-opacity="0" result="BackgroundImageFix"/>
<feColorMatrix in="SourceAlpha" type="matrix" values="0 0 0 0 0 0 0 0 0 0 0 0 0 0 0 0 0 0 127 0" result="hardAlpha"/>
<feOffset dy="3"/>
<feGaussianBlur stdDeviation="3.5"/>
<feComposite in2="hardAlpha" operator="out"/>
<feColorMatrix type="matrix" values="0 0 0 0 0 0 0 0 0 0 0 0 0 0 0 0 0 0 0.25 0"/>
<feBlend mode="normal" in2="BackgroundImageFix" result="effect1_dropShadow_195_206"/>
<feBlend mode="normal" in="SourceGraphic" in2="effect1_dropShadow_195_206" result="shape"/>
</filter>
<radialGradient id="paint0_radial_195_206" cx="0" cy="0" r="1" gradientUnits="userSpaceOnUse" gradientTransform="translate(113.017 114.522) rotate(-134.333) scale(117.01 88.0376)">
<stop stop-color="#21C2C0"/>
<stop offset="1" stop-color="#16C2A9"/>
</radialGradient>
<radialGradient id="paint1_radial_195_206" cx="0" cy="0" r="1" gradientUnits="userSpaceOnUse" gradientTransform="translate(111.889 114.269) rotate(-133.48) scale(102.122 76.7486)">
<stop stop-color="#21C2C0"/>
<stop offset="1" stop-color="#16C2A9"/>
</radialGradient>
<radialGradient id="paint2_radial_195_206" cx="0" cy="0" r="1" gradientUnits="userSpaceOnUse" gradientTransform="translate(110.762 114.045) rotate(-131.87) scale(88.0551 65.8749)">
<stop stop-color="#21C2C0"/>
<stop offset="1" stop-color="#16C2A9"/>
</radialGradient>
<clipPath id="clip0_195_206">
<rect width="210" height="290" fill="white"/>
</clipPath>
<clipPath id="clip1_195_206">
<rect width="242" height="306" fill="white" transform="translate(-16 -24)"/>
</clipPath>
</defs>
</svg>
