<svg width="210" height="290" viewBox="0 0 210 290" fill="none" xmlns="http://www.w3.org/2000/svg">
<g clip-path="url(#clip0_200_342)">
<g clip-path="url(#clip1_200_342)">
<path d="M129.403 -23.9091H90.0361C83.3928 -23.9091 78.0073 -18.5365 78.0073 -11.9091V21.9091C78.0073 28.5365 83.3928 33.9091 90.0361 33.9091H129.403C136.046 33.9091 141.432 28.5365 141.432 21.9091V-11.9091C141.432 -18.5365 136.046 -23.9091 129.403 -23.9091Z" fill="url(#paint0_linear_200_342)"/>
<path d="M129.403 -34.2727H90.0362C84.9027 -34.2727 80.7412 -30.1212 80.7412 -25V8.81821C80.7412 13.9394 84.9027 18.0909 90.0362 18.0909H129.403C134.537 18.0909 138.698 13.9394 138.698 8.81821V-25C138.698 -30.1212 134.537 -34.2727 129.403 -34.2727Z" fill="#EEF8F7" stroke="#C4DFDE" stroke-width="5"/>
<path d="M199.388 -23.9091H160.021C153.378 -23.9091 147.993 -18.5365 147.993 -11.9091V21.9091C147.993 28.5365 153.378 33.9091 160.021 33.9091H199.388C206.032 33.9091 211.417 28.5365 211.417 21.9091V-11.9091C211.417 -18.5365 206.032 -23.9091 199.388 -23.9091Z" fill="url(#paint1_linear_200_342)"/>
<path d="M199.388 -34.2727H160.022C154.888 -34.2727 150.727 -30.1212 150.727 -25V8.81821C150.727 13.9394 154.888 18.0909 160.022 18.0909H199.388C204.522 18.0909 208.683 13.9394 208.683 8.81821V-25C208.683 -30.1212 204.522 -34.2727 199.388 -34.2727Z" fill="#EEF8F7" stroke="#C4DFDE" stroke-width="5"/>
<path d="M59.4172 -23.9091H17.8632C11.2199 -23.9091 5.83447 -18.5365 5.83447 -11.9091V21.9091C5.83447 28.5365 11.2199 33.9091 17.8632 33.9091H59.4172C66.0605 33.9091 71.446 28.5365 71.446 21.9091V-11.9091C71.446 -18.5365 66.0605 -23.9091 59.4172 -23.9091Z" fill="url(#paint2_linear_200_342)"/>
<path d="M59.4173 -34.2727H17.8633C12.7299 -34.2727 8.56836 -30.1212 8.56836 -25V8.81821C8.56836 13.9394 12.7299 18.0909 17.8633 18.0909H59.4173C64.5507 18.0909 68.7122 13.9394 68.7122 8.81821V-25C68.7122 -30.1212 64.5507 -34.2727 59.4173 -34.2727Z" fill="#EEF8F7" stroke="#C4DFDE" stroke-width="5"/>
<path d="M78.0071 39.3636H17.8632C11.2199 39.3636 5.83447 44.7362 5.83447 51.3636V85.1818C5.83447 91.8092 11.2199 97.1818 17.8632 97.1818H78.0071C84.6504 97.1818 90.0359 91.8092 90.0359 85.1818V51.3636C90.0359 44.7362 84.6504 39.3636 78.0071 39.3636Z" fill="url(#paint3_linear_200_342)"/>
<path d="M78.0072 29H17.8633C12.7299 29 8.56836 33.1515 8.56836 38.2727V72.0909C8.56836 77.2121 12.7299 81.3636 17.8633 81.3636H78.0072C83.1407 81.3636 87.3022 77.2121 87.3022 72.0909V38.2727C87.3022 33.1515 83.1407 29 78.0072 29Z" fill="#EEF8F7" stroke="#C4DFDE" stroke-width="5"/>
<path d="M147.993 39.3636H108.626C101.983 39.3636 96.5972 44.7362 96.5972 51.3636V85.1818C96.5972 91.8092 101.983 97.1818 108.626 97.1818H147.993C154.636 97.1818 160.022 91.8092 160.022 85.1818V51.3636C160.022 44.7362 154.636 39.3636 147.993 39.3636Z" fill="url(#paint4_linear_200_342)"/>
<path d="M147.993 29H108.626C103.493 29 99.3311 33.1515 99.3311 38.2727V72.0909C99.3311 77.2121 103.493 81.3636 108.626 81.3636H147.993C153.126 81.3636 157.288 77.2121 157.288 72.0909V38.2727C157.288 33.1515 153.126 29 147.993 29Z" fill="#EEF8F7" stroke="#C4DFDE" stroke-width="5"/>
<path d="M217.978 39.3636H178.611C171.968 39.3636 166.583 44.7362 166.583 51.3636V85.1818C166.583 91.8092 171.968 97.1818 178.611 97.1818H217.978C224.622 97.1818 230.007 91.8092 230.007 85.1818V51.3636C230.007 44.7362 224.622 39.3636 217.978 39.3636Z" fill="url(#paint5_linear_200_342)"/>
<path d="M217.978 29H178.611C173.478 29 169.316 33.1515 169.316 38.2727V72.0909C169.316 77.2121 173.478 81.3636 178.611 81.3636H217.978C223.112 81.3636 227.273 77.2121 227.273 72.0909V38.2727C227.273 33.1515 223.112 29 217.978 29Z" fill="#EEF8F7" stroke="#C4DFDE" stroke-width="5"/>
<path d="M248.597 100.455H209.23C202.587 100.455 197.202 105.827 197.202 112.455V146.273C197.202 152.9 202.587 158.273 209.23 158.273H248.597C255.241 158.273 260.626 152.9 260.626 146.273V112.455C260.626 105.827 255.241 100.455 248.597 100.455Z" fill="url(#paint6_linear_200_342)"/>
<path d="M248.597 90.0909H209.23C204.097 90.0909 199.935 94.2425 199.935 99.3637V133.182C199.935 138.303 204.097 142.455 209.23 142.455H248.597C253.73 142.455 257.892 138.303 257.892 133.182V99.3637C257.892 94.2425 253.73 90.0909 248.597 90.0909Z" fill="#EEF8F7" stroke="#C4DFDE" stroke-width="5"/>
<g filter="url(#filter0_d_200_342)">
<path d="M98.7841 127.727H17.8632C11.2199 127.727 5.83447 133.1 5.83447 139.727V146.273C5.83447 152.9 11.2199 158.273 17.8632 158.273H98.7841C105.427 158.273 110.813 152.9 110.813 146.273V139.727C110.813 133.1 105.427 127.727 98.7841 127.727Z" fill="url(#paint7_linear_200_342)"/>
<path d="M98.7841 95H17.8632C11.2199 95 5.83447 100.373 5.83447 107V140.818C5.83447 147.446 11.2199 152.818 17.8632 152.818H98.7841C105.427 152.818 110.813 147.446 110.813 140.818V107C110.813 100.373 105.427 95 98.7841 95Z" fill="url(#paint8_linear_200_342)"/>
<path d="M41.944 137.955C42.5857 137.955 43.1059 138.474 43.1059 139.114C43.1059 139.7 42.6688 140.186 42.1017 140.262L41.944 140.273H28.7761C28.1344 140.273 27.6142 139.754 27.6142 139.114C27.6142 138.527 28.0513 138.042 28.6185 137.965L28.7761 137.955H41.944ZM33.8212 108.483C34.8952 107.742 36.3537 107.875 37.2763 108.796L37.4427 108.978L49.6268 123.564C50.0328 124.05 50.2551 124.663 50.2551 125.296C50.2551 126.715 49.1597 127.878 47.7665 127.991L47.5441 128H43.1043L43.1059 131.477C43.1059 132.818 42.1288 133.93 40.8465 134.144L40.6172 134.172L40.3948 134.182H30.3253C28.9028 134.182 27.7364 133.089 27.6232 131.699L27.6142 131.477L27.6127 128H23.1759C22.723 128 22.2802 127.887 21.8867 127.675L21.6567 127.535L21.4404 127.373C20.3541 126.471 20.1551 124.899 20.9438 123.761L21.0933 123.564L33.2774 108.978L33.443 108.797L33.6245 108.632L33.8212 108.483ZM35.6575 110.463C35.5435 110.325 35.3548 110.287 35.2001 110.358L35.1121 110.412L35.0625 110.463L22.8785 125.048C22.7415 125.212 22.7637 125.456 22.928 125.592C22.9744 125.631 23.0288 125.658 23.0869 125.671L23.1759 125.682H28.7761C29.3643 125.682 29.8505 126.118 29.9274 126.683L29.938 126.84V131.477C29.938 131.66 30.0654 131.814 30.2365 131.853L30.3253 131.864H40.3948C40.5782 131.864 40.7317 131.736 40.7718 131.566L40.7821 131.477V126.84C40.7821 126.255 41.2192 125.769 41.7863 125.693L41.944 125.682H47.5441C47.758 125.682 47.9314 125.508 47.9314 125.296C47.9314 125.236 47.9173 125.176 47.8907 125.123L47.8417 125.048L35.6575 110.463Z" fill="white" stroke="white" stroke-width="1.8"/>
</g>
<g filter="url(#filter1_d_200_342)">
<path d="M178.612 127.727H139.245C132.601 127.727 127.216 133.1 127.216 139.727V146.273C127.216 152.9 132.601 158.273 139.245 158.273H178.612C185.255 158.273 190.64 152.9 190.64 146.273V139.727C190.64 133.1 185.255 127.727 178.612 127.727Z" fill="url(#paint9_linear_200_342)"/>
<path d="M178.612 95H139.245C132.601 95 127.216 100.373 127.216 107V140.818C127.216 147.446 132.601 152.818 139.245 152.818H178.612C185.255 152.818 190.64 147.446 190.64 140.818V107C190.64 100.373 185.255 95 178.612 95Z" fill="url(#paint10_linear_200_342)"/>
<path d="M147.278 134.464L161.062 116.576C161.372 116.172 161.853 115.937 162.363 115.937H170.367L156.582 133.824C156.271 134.227 155.791 134.464 155.281 134.464H147.278ZM148.918 138.636C148.012 138.636 147.278 137.903 147.278 137V134.464L152.799 132.397C152.983 132.329 153.178 132.294 153.375 132.294H168.392C169.297 132.294 170.032 133.027 170.032 133.93V137C170.032 137.903 169.297 138.636 168.392 138.636H148.918ZM149.922 118.107C149.015 118.107 148.282 117.373 148.282 116.47V113.4C148.282 112.497 149.015 111.764 149.922 111.764H168.726C169.632 111.764 170.367 112.497 170.367 113.4V115.937L164.786 118.004C164.604 118.072 164.41 118.107 164.215 118.107H149.922Z" fill="white"/>
</g>
<path d="M71.446 169.182H17.8632C11.2199 169.182 5.83447 174.554 5.83447 181.182V215C5.83447 221.627 11.2199 227 17.8632 227H71.446C78.0893 227 83.4748 221.627 83.4748 215V181.182C83.4748 174.554 78.0893 169.182 71.446 169.182Z" fill="url(#paint11_linear_200_342)"/>
<path d="M71.4461 158.818H17.8633C12.7299 158.818 8.56836 162.97 8.56836 168.091V201.909C8.56836 207.03 12.7299 211.182 17.8633 211.182H71.4461C76.5795 211.182 80.741 207.03 80.741 201.909V168.091C80.741 162.97 76.5795 158.818 71.4461 158.818Z" fill="#EEF8F7" stroke="#C4DFDE" stroke-width="5"/>
<path d="M162.209 169.182H102.065C95.4216 169.182 90.0361 174.554 90.0361 181.182V215C90.0361 221.627 95.4216 227 102.065 227H162.209C168.852 227 174.238 221.627 174.238 215V181.182C174.238 174.554 168.852 169.182 162.209 169.182Z" fill="url(#paint12_linear_200_342)"/>
<path d="M162.209 158.818H102.065C96.9315 158.818 92.77 162.97 92.77 168.091V201.909C92.77 207.03 96.9315 211.182 102.065 211.182H162.209C167.342 211.182 171.504 207.03 171.504 201.909V168.091C171.504 162.97 167.342 158.818 162.209 158.818Z" fill="#EEF8F7" stroke="#C4DFDE" stroke-width="5"/>
<path d="M252.971 169.182H192.827C186.184 169.182 180.798 174.554 180.798 181.182V215C180.798 221.627 186.184 227 192.827 227H252.971C259.614 227 265 221.627 265 215V181.182C265 174.554 259.614 169.182 252.971 169.182Z" fill="url(#paint13_linear_200_342)"/>
<path d="M252.971 158.818H192.827C187.694 158.818 183.532 162.97 183.532 168.091V201.909C183.532 207.03 187.694 211.182 192.827 211.182H252.971C258.105 211.182 262.266 207.03 262.266 201.909V168.091C262.266 162.97 258.105 158.818 252.971 158.818Z" fill="#EEF8F7" stroke="#C4DFDE" stroke-width="5"/>
<path d="M117.687 123.324V125.857H115.148C114.415 125.857 113.82 126.45 113.82 127.182C113.82 127.914 114.415 128.506 115.148 128.506H117.687V131.039C117.687 131.77 118.281 132.364 119.015 132.364C119.748 132.364 120.342 131.77 120.342 131.039V128.506H122.881C123.614 128.506 124.209 127.914 124.209 127.182C124.209 126.45 123.614 125.857 122.881 125.857H120.342V123.324C120.342 122.593 119.748 122 119.015 122C118.281 122 117.687 122.593 117.687 123.324Z" fill="#274D4B" stroke="#274D4B" stroke-width="0.5"/>
</g>
</g>
<defs>
<filter id="filter0_d_200_342" x="-34.7655" y="54.4" width="186.179" height="144.473" filterUnits="userSpaceOnUse" color-interpolation-filters="sRGB">
<feFlood flood-opacity="0" result="BackgroundImageFix"/>
<feColorMatrix in="SourceAlpha" type="matrix" values="0 0 0 0 0 0 0 0 0 0 0 0 0 0 0 0 0 0 127 0" result="hardAlpha"/>
<feOffset/>
<feGaussianBlur stdDeviation="20.3"/>
<feComposite in2="hardAlpha" operator="out"/>
<feColorMatrix type="matrix" values="0 0 0 0 0.0929167 0 0 0 0 0.929167 0 0 0 0 0.887354 0 0 0 0.32 0"/>
<feBlend mode="normal" in2="BackgroundImageFix" result="effect1_dropShadow_200_342"/>
<feBlend mode="normal" in="SourceGraphic" in2="effect1_dropShadow_200_342" result="shape"/>
</filter>
<filter id="filter1_d_200_342" x="86.6158" y="54.4" width="144.624" height="144.473" filterUnits="userSpaceOnUse" color-interpolation-filters="sRGB">
<feFlood flood-opacity="0" result="BackgroundImageFix"/>
<feColorMatrix in="SourceAlpha" type="matrix" values="0 0 0 0 0 0 0 0 0 0 0 0 0 0 0 0 0 0 127 0" result="hardAlpha"/>
<feOffset/>
<feGaussianBlur stdDeviation="20.3"/>
<feComposite in2="hardAlpha" operator="out"/>
<feColorMatrix type="matrix" values="0 0 0 0 0.0929167 0 0 0 0 0.929167 0 0 0 0 0.887354 0 0 0 0.32 0"/>
<feBlend mode="normal" in2="BackgroundImageFix" result="effect1_dropShadow_200_342"/>
<feBlend mode="normal" in="SourceGraphic" in2="effect1_dropShadow_200_342" result="shape"/>
</filter>
<linearGradient id="paint0_linear_200_342" x1="109.72" y1="19.1819" x2="109.72" y2="33.9091" gradientUnits="userSpaceOnUse">
<stop stop-color="#C4DFDE"/>
<stop offset="1" stop-color="#CBE7E6" stop-opacity="0.58"/>
</linearGradient>
<linearGradient id="paint1_linear_200_342" x1="179.705" y1="19.1819" x2="179.705" y2="33.9091" gradientUnits="userSpaceOnUse">
<stop stop-color="#C4DFDE"/>
<stop offset="1" stop-color="#CBE7E6" stop-opacity="0.58"/>
</linearGradient>
<linearGradient id="paint2_linear_200_342" x1="38.6402" y1="19.1819" x2="38.6402" y2="33.9091" gradientUnits="userSpaceOnUse">
<stop stop-color="#C4DFDE"/>
<stop offset="1" stop-color="#CBE7E6" stop-opacity="0.58"/>
</linearGradient>
<linearGradient id="paint3_linear_200_342" x1="47.9352" y1="82.4546" x2="47.9352" y2="97.1818" gradientUnits="userSpaceOnUse">
<stop stop-color="#C4DFDE"/>
<stop offset="1" stop-color="#CBE7E6" stop-opacity="0.58"/>
</linearGradient>
<linearGradient id="paint4_linear_200_342" x1="128.309" y1="82.4546" x2="128.309" y2="97.1818" gradientUnits="userSpaceOnUse">
<stop stop-color="#C4DFDE"/>
<stop offset="1" stop-color="#CBE7E6" stop-opacity="0.58"/>
</linearGradient>
<linearGradient id="paint5_linear_200_342" x1="198.295" y1="82.4546" x2="198.295" y2="97.1818" gradientUnits="userSpaceOnUse">
<stop stop-color="#C4DFDE"/>
<stop offset="1" stop-color="#CBE7E6" stop-opacity="0.58"/>
</linearGradient>
<linearGradient id="paint6_linear_200_342" x1="228.914" y1="143.545" x2="228.914" y2="158.273" gradientUnits="userSpaceOnUse">
<stop stop-color="#C4DFDE"/>
<stop offset="1" stop-color="#CBE7E6" stop-opacity="0.58"/>
</linearGradient>
<linearGradient id="paint7_linear_200_342" x1="58.3237" y1="143" x2="58.3237" y2="158.273" gradientUnits="userSpaceOnUse">
<stop stop-color="#1FC3BC"/>
<stop offset="1" stop-color="#269591"/>
</linearGradient>
<linearGradient id="paint8_linear_200_342" x1="207.345" y1="123.909" x2="5.83447" y2="123.909" gradientUnits="userSpaceOnUse">
<stop stop-color="#15C2A9"/>
<stop offset="1" stop-color="#21C2C0"/>
</linearGradient>
<linearGradient id="paint9_linear_200_342" x1="158.928" y1="143" x2="158.928" y2="158.273" gradientUnits="userSpaceOnUse">
<stop stop-color="#1FC3BC"/>
<stop offset="1" stop-color="#269591"/>
</linearGradient>
<linearGradient id="paint10_linear_200_342" x1="190.64" y1="123.909" x2="8.02157" y2="123.909" gradientUnits="userSpaceOnUse">
<stop stop-color="#15C2A9"/>
<stop offset="1" stop-color="#21C2C0"/>
</linearGradient>
<linearGradient id="paint11_linear_200_342" x1="44.6546" y1="212.273" x2="44.6546" y2="227" gradientUnits="userSpaceOnUse">
<stop stop-color="#C4DFDE"/>
<stop offset="1" stop-color="#CBE7E6" stop-opacity="0.58"/>
</linearGradient>
<linearGradient id="paint12_linear_200_342" x1="132.137" y1="212.273" x2="132.137" y2="227" gradientUnits="userSpaceOnUse">
<stop stop-color="#C4DFDE"/>
<stop offset="1" stop-color="#CBE7E6" stop-opacity="0.58"/>
</linearGradient>
<linearGradient id="paint13_linear_200_342" x1="222.899" y1="212.273" x2="222.899" y2="227" gradientUnits="userSpaceOnUse">
<stop stop-color="#C4DFDE"/>
<stop offset="1" stop-color="#CBE7E6" stop-opacity="0.58"/>
</linearGradient>
<clipPath id="clip0_200_342">
<rect width="210" height="290" fill="white"/>
</clipPath>
<clipPath id="clip1_200_342">
<rect width="304" height="264" fill="white" transform="translate(-39 -37)"/>
</clipPath>
</defs>
</svg>
