<svg width="210" height="290" viewBox="0 0 210 290" fill="none" xmlns="http://www.w3.org/2000/svg">
<g clip-path="url(#clip0_200_342)">
<g clip-path="url(#clip1_200_342)">
<path d="M129.403 -20.9091H90.0361C83.3928 -20.9091 78.0073 -15.5365 78.0073 -8.90906V24.9091C78.0073 31.5365 83.3928 36.9091 90.0361 36.9091H129.403C136.046 36.9091 141.432 31.5365 141.432 24.9091V-8.90906C141.432 -15.5365 136.046 -20.9091 129.403 -20.9091Z" fill="url(#paint0_linear_200_342)"/>
<path d="M129.403 -31.2727H90.0362C84.9027 -31.2727 80.7412 -27.1212 80.7412 -22V11.8182C80.7412 16.9394 84.9027 21.0909 90.0362 21.0909H129.403C134.537 21.0909 138.698 16.9394 138.698 11.8182V-22C138.698 -27.1212 134.537 -31.2727 129.403 -31.2727Z" fill="#EEF8F7" stroke="#C4DFDE" stroke-width="5"/>
<path d="M199.388 -20.9091H160.021C153.378 -20.9091 147.993 -15.5365 147.993 -8.90906V24.9091C147.993 31.5365 153.378 36.9091 160.021 36.9091H199.388C206.032 36.9091 211.417 31.5365 211.417 24.9091V-8.90906C211.417 -15.5365 206.032 -20.9091 199.388 -20.9091Z" fill="url(#paint1_linear_200_342)"/>
<path d="M199.388 -31.2727H160.022C154.888 -31.2727 150.727 -27.1212 150.727 -22V11.8182C150.727 16.9394 154.888 21.0909 160.022 21.0909H199.388C204.522 21.0909 208.683 16.9394 208.683 11.8182V-22C208.683 -27.1212 204.522 -31.2727 199.388 -31.2727Z" fill="#EEF8F7" stroke="#C4DFDE" stroke-width="5"/>
<path d="M59.4172 -20.9091H17.8632C11.2199 -20.9091 5.83447 -15.5365 5.83447 -8.90906V24.9091C5.83447 31.5365 11.2199 36.9091 17.8632 36.9091H59.4172C66.0605 36.9091 71.446 31.5365 71.446 24.9091V-8.90906C71.446 -15.5365 66.0605 -20.9091 59.4172 -20.9091Z" fill="url(#paint2_linear_200_342)"/>
<path d="M59.4173 -31.2727H17.8633C12.7299 -31.2727 8.56836 -27.1212 8.56836 -22V11.8182C8.56836 16.9394 12.7299 21.0909 17.8633 21.0909H59.4173C64.5507 21.0909 68.7122 16.9394 68.7122 11.8182V-22C68.7122 -27.1212 64.5507 -31.2727 59.4173 -31.2727Z" fill="#EEF8F7" stroke="#C4DFDE" stroke-width="5"/>
<path d="M78.0071 42.3636H17.8632C11.2199 42.3636 5.83447 47.7362 5.83447 54.3636V88.1818C5.83447 94.8092 11.2199 100.182 17.8632 100.182H78.0071C84.6504 100.182 90.0359 94.8092 90.0359 88.1818V54.3636C90.0359 47.7362 84.6504 42.3636 78.0071 42.3636Z" fill="url(#paint3_linear_200_342)"/>
<path d="M78.0072 32H17.8633C12.7299 32 8.56836 36.1515 8.56836 41.2727V75.0909C8.56836 80.2121 12.7299 84.3636 17.8633 84.3636H78.0072C83.1407 84.3636 87.3022 80.2121 87.3022 75.0909V41.2727C87.3022 36.1515 83.1407 32 78.0072 32Z" fill="#EEF8F7" stroke="#C4DFDE" stroke-width="5"/>
<path d="M147.993 42.3636H108.626C101.983 42.3636 96.5972 47.7362 96.5972 54.3636V88.1818C96.5972 94.8092 101.983 100.182 108.626 100.182H147.993C154.636 100.182 160.022 94.8092 160.022 88.1818V54.3636C160.022 47.7362 154.636 42.3636 147.993 42.3636Z" fill="url(#paint4_linear_200_342)"/>
<path d="M147.993 32H108.626C103.493 32 99.3311 36.1515 99.3311 41.2727V75.0909C99.3311 80.2121 103.493 84.3636 108.626 84.3636H147.993C153.126 84.3636 157.288 80.2121 157.288 75.0909V41.2727C157.288 36.1515 153.126 32 147.993 32Z" fill="#EEF8F7" stroke="#C4DFDE" stroke-width="5"/>
<path d="M217.978 42.3636H178.611C171.968 42.3636 166.583 47.7362 166.583 54.3636V88.1818C166.583 94.8092 171.968 100.182 178.611 100.182H217.978C224.622 100.182 230.007 94.8092 230.007 88.1818V54.3636C230.007 47.7362 224.622 42.3636 217.978 42.3636Z" fill="url(#paint5_linear_200_342)"/>
<path d="M217.978 32H178.611C173.478 32 169.316 36.1515 169.316 41.2727V75.0909C169.316 80.2121 173.478 84.3636 178.611 84.3636H217.978C223.112 84.3636 227.273 80.2121 227.273 75.0909V41.2727C227.273 36.1515 223.112 32 217.978 32Z" fill="#EEF8F7" stroke="#C4DFDE" stroke-width="5"/>
<path d="M248.597 103.455H209.23C202.587 103.455 197.202 108.827 197.202 115.455V149.273C197.202 155.9 202.587 161.273 209.23 161.273H248.597C255.241 161.273 260.626 155.9 260.626 149.273V115.455C260.626 108.827 255.241 103.455 248.597 103.455Z" fill="url(#paint6_linear_200_342)"/>
<path d="M248.597 93.0909H209.23C204.097 93.0909 199.935 97.2425 199.935 102.364V136.182C199.935 141.303 204.097 145.455 209.23 145.455H248.597C253.73 145.455 257.892 141.303 257.892 136.182V102.364C257.892 97.2425 253.73 93.0909 248.597 93.0909Z" fill="#EEF8F7" stroke="#C4DFDE" stroke-width="5"/>
<g filter="url(#filter0_d_200_342)">
<path d="M98.7841 130.727H17.8632C11.2199 130.727 5.83447 136.1 5.83447 142.727V149.273C5.83447 155.9 11.2199 161.273 17.8632 161.273H98.7841C105.427 161.273 110.813 155.9 110.813 149.273V142.727C110.813 136.1 105.427 130.727 98.7841 130.727Z" fill="url(#paint7_linear_200_342)"/>
<path d="M98.7841 98H17.8632C11.2199 98 5.83447 103.373 5.83447 110V143.818C5.83447 150.446 11.2199 155.818 17.8632 155.818H98.7841C105.427 155.818 110.813 150.446 110.813 143.818V110C110.813 103.373 105.427 98 98.7841 98Z" fill="url(#paint8_linear_200_342)"/>
<path d="M41.944 140.955C42.5857 140.955 43.1059 141.474 43.1059 142.114C43.1059 142.7 42.6688 143.186 42.1017 143.262L41.944 143.273H28.7761C28.1344 143.273 27.6142 142.754 27.6142 142.114C27.6142 141.527 28.0513 141.042 28.6185 140.965L28.7761 140.955H41.944ZM33.8212 111.483C34.8952 110.742 36.3537 110.875 37.2763 111.796L37.4427 111.978L49.6268 126.564C50.0328 127.05 50.2551 127.663 50.2551 128.296C50.2551 129.715 49.1597 130.878 47.7665 130.991L47.5441 131H43.1043L43.1059 134.477C43.1059 135.818 42.1288 136.93 40.8465 137.144L40.6172 137.172L40.3948 137.182H30.3253C28.9028 137.182 27.7364 136.089 27.6232 134.699L27.6142 134.477L27.6127 131H23.1759C22.723 131 22.2802 130.887 21.8867 130.675L21.6567 130.535L21.4404 130.373C20.3541 129.471 20.1551 127.899 20.9438 126.761L21.0933 126.564L33.2774 111.978L33.443 111.797L33.6245 111.632L33.8212 111.483ZM35.6575 113.463C35.5435 113.325 35.3548 113.287 35.2001 113.358L35.1121 113.412L35.0625 113.463L22.8785 128.048C22.7415 128.212 22.7637 128.456 22.928 128.592C22.9744 128.631 23.0288 128.658 23.0869 128.671L23.1759 128.682H28.7761C29.3643 128.682 29.8505 129.118 29.9274 129.683L29.938 129.84V134.477C29.938 134.66 30.0654 134.814 30.2365 134.853L30.3253 134.864H40.3948C40.5782 134.864 40.7317 134.736 40.7718 134.566L40.7821 134.477V129.84C40.7821 129.255 41.2192 128.769 41.7863 128.693L41.944 128.682H47.5441C47.758 128.682 47.9314 128.508 47.9314 128.296C47.9314 128.236 47.9173 128.176 47.8907 128.123L47.8417 128.048L35.6575 113.463Z" fill="white" stroke="white" stroke-width="1.8"/>
</g>
<g filter="url(#filter1_d_200_342)">
<path d="M178.612 130.727H139.245C132.601 130.727 127.216 136.1 127.216 142.727V149.273C127.216 155.9 132.601 161.273 139.245 161.273H178.612C185.255 161.273 190.64 155.9 190.64 149.273V142.727C190.64 136.1 185.255 130.727 178.612 130.727Z" fill="url(#paint9_linear_200_342)"/>
<path d="M178.612 98H139.245C132.601 98 127.216 103.373 127.216 110V143.818C127.216 150.446 132.601 155.818 139.245 155.818H178.612C185.255 155.818 190.64 150.446 190.64 143.818V110C190.64 103.373 185.255 98 178.612 98Z" fill="url(#paint10_linear_200_342)"/>
<path d="M147.278 137.464L161.062 119.576C161.372 119.172 161.853 118.937 162.363 118.937H170.367L156.582 136.824C156.271 137.227 155.791 137.464 155.281 137.464H147.278ZM148.918 141.636C148.012 141.636 147.278 140.903 147.278 140V137.464L152.799 135.397C152.983 135.329 153.178 135.294 153.375 135.294H168.392C169.297 135.294 170.032 136.027 170.032 136.93V140C170.032 140.903 169.297 141.636 168.392 141.636H148.918ZM149.922 121.107C149.015 121.107 148.282 120.373 148.282 119.47V116.4C148.282 115.497 149.015 114.764 149.922 114.764H168.726C169.632 114.764 170.367 115.497 170.367 116.4V118.937L164.786 121.004C164.604 121.072 164.41 121.107 164.215 121.107H149.922Z" fill="white"/>
</g>
<path d="M71.446 172.182H17.8632C11.2199 172.182 5.83447 177.554 5.83447 184.182V218C5.83447 224.627 11.2199 230 17.8632 230H71.446C78.0893 230 83.4748 224.627 83.4748 218V184.182C83.4748 177.554 78.0893 172.182 71.446 172.182Z" fill="url(#paint11_linear_200_342)"/>
<path d="M71.4461 161.818H17.8633C12.7299 161.818 8.56836 165.97 8.56836 171.091V204.909C8.56836 210.03 12.7299 214.182 17.8633 214.182H71.4461C76.5795 214.182 80.741 210.03 80.741 204.909V171.091C80.741 165.97 76.5795 161.818 71.4461 161.818Z" fill="#EEF8F7" stroke="#C4DFDE" stroke-width="5"/>
<path d="M162.209 172.182H102.065C95.4216 172.182 90.0361 177.554 90.0361 184.182V218C90.0361 224.627 95.4216 230 102.065 230H162.209C168.852 230 174.238 224.627 174.238 218V184.182C174.238 177.554 168.852 172.182 162.209 172.182Z" fill="url(#paint12_linear_200_342)"/>
<path d="M162.209 161.818H102.065C96.9315 161.818 92.77 165.97 92.77 171.091V204.909C92.77 210.03 96.9315 214.182 102.065 214.182H162.209C167.342 214.182 171.504 210.03 171.504 204.909V171.091C171.504 165.97 167.342 161.818 162.209 161.818Z" fill="#EEF8F7" stroke="#C4DFDE" stroke-width="5"/>
<path d="M252.971 172.182H192.827C186.184 172.182 180.798 177.554 180.798 184.182V218C180.798 224.627 186.184 230 192.827 230H252.971C259.614 230 265 224.627 265 218V184.182C265 177.554 259.614 172.182 252.971 172.182Z" fill="url(#paint13_linear_200_342)"/>
<path d="M252.971 161.818H192.827C187.694 161.818 183.532 165.97 183.532 171.091V204.909C183.532 210.03 187.694 214.182 192.827 214.182H252.971C258.105 214.182 262.266 210.03 262.266 204.909V171.091C262.266 165.97 258.105 161.818 252.971 161.818Z" fill="#EEF8F7" stroke="#C4DFDE" stroke-width="5"/>
<path d="M117.687 126.324V128.857H115.148C114.415 128.857 113.82 129.45 113.82 130.182C113.82 130.914 114.415 131.506 115.148 131.506H117.687V134.039C117.687 134.77 118.281 135.364 119.015 135.364C119.748 135.364 120.342 134.77 120.342 134.039V131.506H122.881C123.614 131.506 124.209 130.914 124.209 130.182C124.209 129.45 123.614 128.857 122.881 128.857H120.342V126.324C120.342 125.593 119.748 125 119.015 125C118.281 125 117.687 125.593 117.687 126.324Z" fill="#274D4B" stroke="#274D4B" stroke-width="0.5"/>
</g>
</g>
<defs>
<filter id="filter0_d_200_342" x="-34.7655" y="57.4" width="186.179" height="144.473" filterUnits="userSpaceOnUse" color-interpolation-filters="sRGB">
<feFlood flood-opacity="0" result="BackgroundImageFix"/>
<feColorMatrix in="SourceAlpha" type="matrix" values="0 0 0 0 0 0 0 0 0 0 0 0 0 0 0 0 0 0 127 0" result="hardAlpha"/>
<feOffset/>
<feGaussianBlur stdDeviation="20.3"/>
<feComposite in2="hardAlpha" operator="out"/>
<feColorMatrix type="matrix" values="0 0 0 0 0.0929167 0 0 0 0 0.929167 0 0 0 0 0.887354 0 0 0 0.32 0"/>
<feBlend mode="normal" in2="BackgroundImageFix" result="effect1_dropShadow_200_342"/>
<feBlend mode="normal" in="SourceGraphic" in2="effect1_dropShadow_200_342" result="shape"/>
</filter>
<filter id="filter1_d_200_342" x="86.6158" y="57.4" width="144.624" height="144.473" filterUnits="userSpaceOnUse" color-interpolation-filters="sRGB">
<feFlood flood-opacity="0" result="BackgroundImageFix"/>
<feColorMatrix in="SourceAlpha" type="matrix" values="0 0 0 0 0 0 0 0 0 0 0 0 0 0 0 0 0 0 127 0" result="hardAlpha"/>
<feOffset/>
<feGaussianBlur stdDeviation="20.3"/>
<feComposite in2="hardAlpha" operator="out"/>
<feColorMatrix type="matrix" values="0 0 0 0 0.0929167 0 0 0 0 0.929167 0 0 0 0 0.887354 0 0 0 0.32 0"/>
<feBlend mode="normal" in2="BackgroundImageFix" result="effect1_dropShadow_200_342"/>
<feBlend mode="normal" in="SourceGraphic" in2="effect1_dropShadow_200_342" result="shape"/>
</filter>
<linearGradient id="paint0_linear_200_342" x1="109.72" y1="22.1819" x2="109.72" y2="36.9091" gradientUnits="userSpaceOnUse">
<stop stop-color="#C4DFDE"/>
<stop offset="1" stop-color="#CBE7E6" stop-opacity="0.58"/>
</linearGradient>
<linearGradient id="paint1_linear_200_342" x1="179.705" y1="22.1819" x2="179.705" y2="36.9091" gradientUnits="userSpaceOnUse">
<stop stop-color="#C4DFDE"/>
<stop offset="1" stop-color="#CBE7E6" stop-opacity="0.58"/>
</linearGradient>
<linearGradient id="paint2_linear_200_342" x1="38.6402" y1="22.1819" x2="38.6402" y2="36.9091" gradientUnits="userSpaceOnUse">
<stop stop-color="#C4DFDE"/>
<stop offset="1" stop-color="#CBE7E6" stop-opacity="0.58"/>
</linearGradient>
<linearGradient id="paint3_linear_200_342" x1="47.9352" y1="85.4546" x2="47.9352" y2="100.182" gradientUnits="userSpaceOnUse">
<stop stop-color="#C4DFDE"/>
<stop offset="1" stop-color="#CBE7E6" stop-opacity="0.58"/>
</linearGradient>
<linearGradient id="paint4_linear_200_342" x1="128.309" y1="85.4546" x2="128.309" y2="100.182" gradientUnits="userSpaceOnUse">
<stop stop-color="#C4DFDE"/>
<stop offset="1" stop-color="#CBE7E6" stop-opacity="0.58"/>
</linearGradient>
<linearGradient id="paint5_linear_200_342" x1="198.295" y1="85.4546" x2="198.295" y2="100.182" gradientUnits="userSpaceOnUse">
<stop stop-color="#C4DFDE"/>
<stop offset="1" stop-color="#CBE7E6" stop-opacity="0.58"/>
</linearGradient>
<linearGradient id="paint6_linear_200_342" x1="228.914" y1="146.545" x2="228.914" y2="161.273" gradientUnits="userSpaceOnUse">
<stop stop-color="#C4DFDE"/>
<stop offset="1" stop-color="#CBE7E6" stop-opacity="0.58"/>
</linearGradient>
<linearGradient id="paint7_linear_200_342" x1="58.3237" y1="146" x2="58.3237" y2="161.273" gradientUnits="userSpaceOnUse">
<stop stop-color="#1FC3BC"/>
<stop offset="1" stop-color="#269591"/>
</linearGradient>
<linearGradient id="paint8_linear_200_342" x1="207.345" y1="126.909" x2="5.83447" y2="126.909" gradientUnits="userSpaceOnUse">
<stop stop-color="#15C2A9"/>
<stop offset="1" stop-color="#21C2C0"/>
</linearGradient>
<linearGradient id="paint9_linear_200_342" x1="158.928" y1="146" x2="158.928" y2="161.273" gradientUnits="userSpaceOnUse">
<stop stop-color="#1FC3BC"/>
<stop offset="1" stop-color="#269591"/>
</linearGradient>
<linearGradient id="paint10_linear_200_342" x1="190.64" y1="126.909" x2="8.02157" y2="126.909" gradientUnits="userSpaceOnUse">
<stop stop-color="#15C2A9"/>
<stop offset="1" stop-color="#21C2C0"/>
</linearGradient>
<linearGradient id="paint11_linear_200_342" x1="44.6546" y1="215.273" x2="44.6546" y2="230" gradientUnits="userSpaceOnUse">
<stop stop-color="#C4DFDE"/>
<stop offset="1" stop-color="#CBE7E6" stop-opacity="0.58"/>
</linearGradient>
<linearGradient id="paint12_linear_200_342" x1="132.137" y1="215.273" x2="132.137" y2="230" gradientUnits="userSpaceOnUse">
<stop stop-color="#C4DFDE"/>
<stop offset="1" stop-color="#CBE7E6" stop-opacity="0.58"/>
</linearGradient>
<linearGradient id="paint13_linear_200_342" x1="222.899" y1="215.273" x2="222.899" y2="230" gradientUnits="userSpaceOnUse">
<stop stop-color="#C4DFDE"/>
<stop offset="1" stop-color="#CBE7E6" stop-opacity="0.58"/>
</linearGradient>
<clipPath id="clip0_200_342">
<rect width="210" height="290" fill="white"/>
</clipPath>
<clipPath id="clip1_200_342">
<rect width="304" height="264" fill="white" transform="translate(-39 -34)"/>
</clipPath>
</defs>
</svg>
